<?xml version="1.0" encoding="UTF-8"?>
<!-- Created with Inkscape (http://www.inkscape.org/) -->
<svg width="171.25" height="141.6" version="1.1" viewBox="0 0 171.25 141.6" xmlns="http://www.w3.org/2000/svg" xmlns:cc="http://creativecommons.org/ns#" xmlns:dc="http://purl.org/dc/elements/1.1/" xmlns:rdf="http://www.w3.org/1999/02/22-rdf-syntax-ns#">
 <metadata>
  <rdf:RDF>
   <cc:Work rdf:about="">
    <dc:format>image/svg+xml</dc:format>
    <dc:type rdf:resource="http://purl.org/dc/dcmitype/StillImage"/>
    <dc:title/>
   </cc:Work>
  </rdf:RDF>
 </metadata>
 <path d="m61.25 141.06c-35.594-4.8873-61.25-34.023-61.25-69.558 0-32.036 20.639-58.972 51.795-67.595 9.8386-2.7232 24.657-2.9338 34.955-0.49682 8.7781 2.0772 21.607 8.3679 27.5 13.484l4.5 3.9071-2.4243 2.6006c-1.3334 1.4303-2.849 2.6006-3.368 2.6006s-2.5547-1.4145-4.5238-3.1434c-4.4208-3.8815-15.698-9.2832-23.644-11.325-13.735-3.5296-32.667-0.9724-45.439 6.1376-8.4431 4.7003-18.732 14.989-23.432 23.432-10.116 18.171-10.116 42.627 0 60.798 4.7003 8.4431 14.989 18.732 23.432 23.432 3.6307 2.0212 10.115 4.5736 14.41 5.672 15.42 3.9437 32.969 1.7978 46.388-5.672 8.4431-4.7003 18.732-14.989 23.432-23.432 4.3213-7.7623 7.6692-19.922 7.6692-27.856 0-5.2233 0.2829-5.9133 3.8536-9.4l3.8536-3.763 0.60097 5.0743c1.866 15.755-4.6342 36.428-15.692 49.905-14.841 18.088-40.168 28.28-62.616 25.198zm-16.257-54.815c-14.159-14.166-25.743-26.525-25.743-27.463 0-2.607 11.839-14.78 14.375-14.78 1.4524 0 8.2744 6.1356 21.122 18.997l18.977 18.997 41.041-40.997c22.573-22.548 41.63-40.997 42.349-40.997 2.2423 0 14.135 12.135 14.135 14.423 0 1.4452-14.982 17.076-47.774 49.841-37.366 37.336-48.315 47.736-50.257 47.736-1.9133 0-8.3884-5.9088-28.226-25.757z" fill="#6c757d"/>
</svg>
