<?xml version="1.0" encoding="UTF-8"?>
<!-- Created with Inkscape (http://www.inkscape.org/) -->
<svg width="117.99" height="182.65" version="1.1" viewBox="0 0 117.99 182.65" xmlns="http://www.w3.org/2000/svg" xmlns:cc="http://creativecommons.org/ns#" xmlns:dc="http://purl.org/dc/elements/1.1/" xmlns:rdf="http://www.w3.org/1999/02/22-rdf-syntax-ns#">
 <metadata>
  <rdf:RDF>
   <cc:Work rdf:about="">
    <dc:format>image/svg+xml</dc:format>
    <dc:type rdf:resource="http://purl.org/dc/dcmitype/StillImage"/>
    <dc:title/>
   </cc:Work>
  </rdf:RDF>
 </metadata>
 <path d="m27.477 181.62c-1.0181-1.6474 3.3045-9.521 6.0269-10.978 2.3011-1.2315 2.49-1.8815 2.49-8.5671v-7.2345l5.25-0.38601c2.953-0.21712 5.5714 0.0688 5.9847 0.65349 0.40408 0.57172 0.74158 4.302 0.75 8.2895 0.0084 3.9875 0.43467 7.25 0.94722 7.25 1.4829 0 5.0264 5.5414 5.7013 8.9158l0.61683 3.0842h-13.566c-8.2064 0-13.817-0.4059-14.201-1.0274zm35.85-2.6378c0.34671-2.1365 1.8611-4.9716 3.6308-6.7976 2.7969-2.8857 3.0361-3.6866 3.0361-10.168 0-3.8696 0.18728-7.2232 0.41618-7.4524 0.2289-0.22917 2.7039-0.26074 5.5-0.0702l5.0838 0.34656v6.8354c0 6.4611 0.1651 6.953 3.0151 8.9823 3.3313 2.3721 5.9849 6.7791 5.9849 9.9396 0 1.966-0.55658 2.0497-13.631 2.0497h-13.631zm-26.333-28.335c-4.3982-4.3982-0.82123-10.772 5.6786-10.118 2.0646 0.20755 4.3214 3.1791 4.3214 5.6899 0 2.9415-3.2546 6.4286-6 6.4286-1.1 0-2.9-0.9-4-2zm36.223 0.4433c-1.538-1.0773-2.2225-2.5795-2.2225-4.8776 0-3.803 1.9035-5.8157 5.5-5.8157s5.5 2.0128 5.5 5.8157c0 3.2072-2.7585 6.4343-5.5 6.4343-0.58024 0-2.0551-0.70052-3.2775-1.5567zm-71.651-13.015c-1.8057-1.8057-2.1361-9.5049-0.53624-12.494 0.56935-1.0638 1.9194-1.9343 3-1.9343 1.7949 0 1.9648-0.7161 1.9648-8.2822v-8.2822l11-0.159v7.9553c0 7.1287 0.20894 8.01 2.0109 8.4812 2.4455 0.6395 3.2136 3.3411 2.8014 9.8532-0.3004 4.7459-0.42653 4.9337-3.3123 4.9337-2.1443 0-3.2792-0.63632-3.9789-2.2308-1.6799-3.8285-6.5211-3.975-6.5211-0.19735 0 1.0218-0.87042 2.3237-1.9343 2.893-2.5016 1.3388-2.6352 1.3228-4.4943-0.53625zm110.18 0.49133c-0.9625-0.5606-1.75-1.8488-1.75-2.8626 0-3.7654-4.845-3.608-6.5211 0.21186-0.69966 1.5945-1.8346 2.2308-3.9789 2.2308-2.8858 0-3.0119-0.18787-3.3123-4.9337-0.4122-6.512 0.35589-9.2137 2.8014-9.8532 1.802-0.47123 2.0109-1.3524 2.0109-8.4812v-7.9553l11 0.159v8.2822c0 7.5661 0.16988 8.2822 1.9648 8.2822 1.0806 0 2.4306 0.87042 3 1.9343 1.5999 2.9894 1.2695 10.689-0.53625 12.494-1.8215 1.8215-2.3072 1.8725-4.6786 0.49133zm-75.44-1.5647c-0.24363-0.62966-0.30048-2.8797-0.12633-5l0.31664-3.8552 10.5-0.60452v10.619l-5.1237-7e-3c-2.9168-4e-3 -5.3145-0.50054-5.5666-1.1523zm34.895-3.8014 0.29545-5.0538 10.5-0.60452-0.00196 10.605-11.089 0.1076 0.29545-5.0538zm-41.652-9.8038c-0.21138-0.6875-0.88241-10.025-1.4912-20.75-0.60877-10.725-1.3822-22.745-1.7187-26.711l-0.6118-7.2107 18.769-0.57861v-3c0-2.8148-0.27778-3.0309-4.5-3.5l-4.5-0.5-1.2037-6c-2.0126-10.032-3.3483-24.322-2.67-28.564 0.77587-4.852 3.3932-6.9357 8.712-6.9357 2.9849 0 11.743-2.2032 14.485-3.6441 0.71887-0.37767-2.7911-6.003-5.0786-8.1392-2.1656-2.0225-2.5903-2.1082-3.7175-0.75-1.6204 1.9525-5.4141 1.9776-7.0169 0.0463-1.8264-2.2007-0.41703-6.3729 2.3909-7.0777 3.554-0.89199 11.587 5.2898 14.984 11.531 2.3402 4.2996 3.1725 5.0335 5.7093 5.0335 1.6333 0 4.5852 0.675 6.5597 1.5s5.699 1.5 8.2768 1.5c6.9525 0 8.3791 1.5056 8.88 9.3722 0.40192 6.312-0.8056 17.64-2.9717 27.878l-1.005 4.75h-4.4171c-4.3815 0-4.4171 0.02825-4.4171 3.5v3.5h18l-0.0152 5.25c-8e-3 2.8875-0.67386 14.7-1.4789 26.25-0.80506 11.55-1.4732 21.788-1.4848 22.75-0.0196 1.626-2.0782 1.75-29.052 1.75-22.353 0-29.12-0.28753-29.416-1.25zm37.267-72c-0.29573-2.0823-0.89732-2.2718-8.0696-2.5421-7.7108-0.29059-7.75-0.2792-7.75 2.25 0 2.5127 0.09309 2.5421 8.0696 2.5421 7.7964 0 8.0587-0.07615 7.75-2.25zm-15.134-10.924c3.159-2.9677 3.0225-7.1236-0.32041-9.7531-3.4602-2.7218-5.912-2.6167-8.9106 0.38196-2.9986 2.9986-3.1037 5.4504-0.38196 8.9106 2.5617 3.2566 6.4389 3.4424 9.613 0.46054zm-7.297-3.2555c-0.99567-2.5947 0.39988-4.7392 2.857-4.3903 1.6527 0.23469 2.2545 0.98741 2.2545 2.8201s-0.60174 2.5854-2.2545 2.8201c-1.3523 0.19202-2.4956-0.3082-2.857-1.25zm30.444 3.6799c3.1797-2.7089 3.2525-7.1649 0.16742-10.25-4.3261-4.3261-11-1.0236-11 5.4433 0 5.7547 6.391 8.5906 10.833 4.8067zm-6.317-2.6149c-2.4789-1.8126-1.1596-5.6351 1.9448-5.6351 2.0949 0 3.5396 1.6517 3.5396 4.0466 0 1.8517-3.6705 2.9148-5.4844 1.5885zm-61.111 64.036c-2.1604-1.8583-2.5724-2.8656-2.0399-4.9873 0.84652-3.3728 4.8334-6.0734 7.6475-5.1802 4.7863 1.5191 5.1022 9.2119 0.46493 11.325-3.2768 1.493-2.9103 1.5629-6.0726-1.1572zm96.824 1.0984c-4.3719-2.107-3.853-9.802 0.75975-11.266 2.8141-0.89318 6.801 1.8074 7.6475 5.1802 0.53252 2.1217 0.1205 3.1291-2.0399 4.9873-3.0276 2.6042-3.1862 2.6316-6.3674 1.0984zm-89.569-12.9c-1.0122-0.58841-3.1555-0.8768-4.763-0.64087-2.5706 0.37728-2.8484 0.17851-2.3058-1.6498 1.9224-6.4781 13.07-19.524 15.434-18.063 0.53628 0.33144 0.97505 3.0002 0.97505 5.9306 0 4.3075-0.62247 6.2961-3.25 10.383-3.6032 5.6041-3.5087 5.5414-6.0903 4.0406zm82.59-4.0388c-2.6273-4.0877-3.25-6.0774-3.25-10.385 0-2.9304 0.43877-5.5991 0.97505-5.9306 2.347-1.4505 13.515 11.584 15.409 17.985 0.51601 1.7436 0.11268 2.0064-3.1462 2.0499-2.0559 0.0275-4.413 0.33956-5.238 0.69356-1.0531 0.45185-2.4683-0.86296-4.75-4.413z" fill="#6c757d"/>
</svg>
