<?xml version="1.0" encoding="UTF-8"?>
<!-- Created with Inkscape (http://www.inkscape.org/) -->
<svg width="218.68" height="218.73" version="1.1" viewBox="0 0 218.68 218.73" xmlns="http://www.w3.org/2000/svg" xmlns:cc="http://creativecommons.org/ns#" xmlns:dc="http://purl.org/dc/elements/1.1/" xmlns:rdf="http://www.w3.org/1999/02/22-rdf-syntax-ns#">
 <metadata>
  <rdf:RDF>
   <cc:Work rdf:about="">
    <dc:format>image/svg+xml</dc:format>
    <dc:type rdf:resource="http://purl.org/dc/dcmitype/StillImage"/>
    <dc:title/>
   </cc:Work>
  </rdf:RDF>
 </metadata>
 <path d="m40.321 217.2c-8.9547-2.1675-17.413-7.1176-24.752-14.487-18.423-18.497-20.763-47.025-5.5913-68.143 2.4831-3.4562 9.6227-11.305 15.866-17.442 8.9694-8.8173 12.117-11.302 15-11.843 9.3909-1.7617 16.816 7.9881 12.414 16.301-0.78644 1.4852-6.4593 7.6503-12.606 13.7-13.577 13.362-16.962 19.264-16.963 29.572-1e-3 8.5314 2.1798 14.716 7.201 20.42 6.1342 6.9688 12.608 9.9306 21.798 9.9733 13.36 0.0621 14.242-0.52856 42.367-28.359 28.124-27.83 30.636-31.324 30.627-42.607-8e-3 -9.5583-1.0493-12.13-10.295-25.413-2.2037-3.1661-1.7234-9.2827 0.96616-12.303 2.6745-3.0034 7.7238-4.8566 11.29-4.1434 6.4203 1.2841 16.311 15.162 19.592 27.49 1.8757 7.0474 1.8386 19.967-0.0784 27.327-3.3081 12.7-6.0191 16.202-34.914 45.093-23.259 23.256-27.967 27.498-33.555 30.232-12.524 6.1282-25.638 7.7107-38.366 4.6299zm48.778-81.788c-7.169-3.232-15.752-17.982-18.063-31.041-1.5206-8.5933-1.19-14.563 1.3061-23.584 3.3376-12.063 6.4642-16.177 31.807-41.85 13.22-13.392 26.865-26.38 30.321-28.862 21.785-15.642 51.162-12.809 69.574 6.7083 10.092 10.698 14.609 21.923 14.63 36.359 0.0264 17.485-4.6756 27.119-21.935 44.943-12.791 13.209-16.054 15.701-20.553 15.701-8.1404 0-14.014-9.2342-10.379-16.316 0.61679-1.2013 6.4107-7.5843 12.875-14.184 14.919-15.231 16.487-18.082 16.496-30 6e-3 -8.1355-0.281-9.5209-2.9928-14.422-5.7978-10.48-17.814-16.944-29.292-15.76-10.389 1.0723-13.751 3.616-40.814 30.885-27.767 27.978-28.394 28.89-28.394 41.297 0 7.7784 2.1667 14.166 6.5365 19.272 1.8854 2.2026 3.9158 5.2879 4.5121 6.8562 3.4414 9.0517-6.6225 18.061-15.636 13.997z" fill="#6c757d"/>
</svg>
