<?xml version="1.0" encoding="UTF-8"?>
<!-- Created with Inkscape (http://www.inkscape.org/) -->
<svg width="127.87" height="172.01" version="1.1" viewBox="0 0 127.87 172.01" xmlns="http://www.w3.org/2000/svg" xmlns:cc="http://creativecommons.org/ns#" xmlns:dc="http://purl.org/dc/elements/1.1/" xmlns:rdf="http://www.w3.org/1999/02/22-rdf-syntax-ns#">
 <metadata>
  <rdf:RDF>
   <cc:Work rdf:about="">
    <dc:format>image/svg+xml</dc:format>
    <dc:type rdf:resource="http://purl.org/dc/dcmitype/StillImage"/>
    <dc:title/>
   </cc:Work>
  </rdf:RDF>
 </metadata>
 <path d="m9.3149 171.11c-3.7686-1.5263-8.2742-7.7075-8.9285-12.249-0.34008-2.3607-0.483-36.467-0.3176-75.792 0.29197-69.416 0.35902-71.599 2.3007-74.895 1.1-1.8675 3.2699-4.3425 4.822-5.5 2.7397-2.0432 3.9628-2.1128 41.957-2.3887l39.135-0.28417 39.587 39.55-4e-3 61.009c-4e-3 59.114-0.0655 61.111-1.9909 64.269-1.0929 1.7925-3.4537 4.1533-5.2463 5.2463-3.1473 1.9189-5.0777 1.9851-56.259 1.9275-29.15-0.0328-53.925-0.43411-55.055-0.89179zm108.73-8.6961c1.7315-1.567 1.8287-4.7307 1.8287-59.5v-57.845h-17.893c-15.394 0-17.978-0.22096-18.5-1.5818-0.33385-0.86998-0.60699-9.195-0.60699-18.5v-16.918h-35c-33.332 0-35.093 0.09266-36.944 1.9442-1.0693 1.0693-2.2146 3.4318-2.545 5.25s-0.46804 35.096-0.30578 73.951c0.28332 67.843 0.37059 70.729 2.2 72.75 1.89 2.0879 2.3142 2.1045 53.921 2.1045 46.998 0 52.193-0.15965 53.845-1.655zm-105.72-7.8164c-1.1946-2.8592-1.282-4.4294-0.42378-7.6166 1.1829-4.3931 2.6916-5.4512 6.4337-4.512 3.335 0.83702 4.8967 6.3566 3.2371 11.441-1.0132 3.104-1.6912 3.7071-4.4683 3.9744-2.9299 0.28204-3.4319-0.0632-4.7787-3.2866zm5.8552 0.72143c0.23142-0.4125 0.73556-2.1 1.1203-3.75l0.69956-3-2.6846 2.646c-1.4765 1.4553-2.3775 3.1428-2.0023 3.75 0.78469 1.2696 2.2517 1.4508 2.867 0.35399zm-0.08909-10.436c-1.5448-1.5448-2.8538-0.26232-3.7625 3.6864l-0.69041 3 2.8333-2.7364c2.2213-2.1454 2.5712-2.9985 1.6196-3.95zm9.7864 7.1864c0-4.6667-0.33333-6-1.5-6-2.1175 0-1.8633-1.7352 0.43426-2.9648 4.4588-2.3863 5.0657-1.5518 5.0657 6.9648 0 7.3333-0.16667 8-2 8-1.7778 0-2-0.66667-2-6zm13 0c0-4.6667-0.33333-6-1.5-6-2.1175 0-1.8633-1.7352 0.43426-2.9648 3.6619-1.9598 4.0657-1.268 4.0657 6.9648 0 6.4444-0.29167 8-1.5 8-1.1667 0-1.5-1.3333-1.5-6zm9.4162 2.4537c-1.3112-3.1382-1.3444-4.2826-0.22619-7.8151 1.0304-3.2551 1.8436-4.1938 3.81-4.3976 1.375-0.14248 3.095 0.12919 3.8223 0.60371 2.0703 1.3508 3.0281 7.3834 1.7836 11.234-0.92323 2.8564-1.6469 3.4738-4.3798 3.7369-2.9407 0.28307-3.4301-0.059-4.81-3.3615zm5.8865 0.79634c0.23142-0.4125 0.73556-2.1 1.1203-3.75l0.69956-3-2.6846 2.646c-1.4765 1.4553-2.3775 3.1428-2.0023 3.75 0.78469 1.2696 2.2517 1.4508 2.867 0.35399zm-0.08909-10.436c-1.5448-1.5448-2.8538-0.26232-3.7625 3.6864l-0.69041 3 2.8333-2.7364c2.2213-2.1454 2.5712-2.9985 1.6196-3.95zm9.7864 7.1864c0-4.6667-0.33333-6-1.5-6-2.1175 0-1.8633-1.7352 0.43426-2.9648 4.4588-2.3863 5.0657-1.5518 5.0657 6.9648 0 7.3333-0.16667 8-2 8-1.7778 0-2-0.66667-2-6zm13 0c0-4.6667-0.33333-6-1.5-6-2.1175 0-1.8633-1.7352 0.43426-2.9648 3.6619-1.9598 4.0657-1.268 4.0657 6.9648 0 6.4444-0.29167 8-1.5 8-1.1667 0-1.5-1.3333-1.5-6zm9.3233 2.25c-1.3712-3.2655-1.3969-4.2668-0.19897-7.75 1.0786-3.1361 1.9424-4.0657 3.9999-4.3043 3.8254-0.44357 5.8757 2.1531 5.8757 7.4415 0 6.1139-1.3678 8.3628-5.0862 8.3628-2.5384 0-3.2651-0.5937-4.5905-3.75zm5.9794 1c0.23142-0.4125 0.73556-2.1 1.1203-3.75l0.69956-3-2.6846 2.646c-1.4765 1.4553-2.3775 3.1428-2.0023 3.75 0.78469 1.2696 2.2517 1.4508 2.867 0.35399zm-0.0891-10.436c-1.5448-1.5448-2.8538-0.26232-3.7625 3.6864l-0.69041 3 2.8333-2.7364c2.2214-2.1454 2.5712-2.9985 1.6196-3.95zm7.1806 10.665c-1.8321-2.7961-1.4777-9.4685 0.63834-12.018 1.7973-2.1656 5.6368-1.7709 7.4108 0.76173 2.1813 3.1142 2.0258 10.043-0.27204 12.122-2.6486 2.397-5.8744 2.0377-7.777-0.86611zm5.9988-1.0607c0.33387-0.86998 0.60701-2.5057 0.60701-3.6349 0-1.886-0.16799-1.8395-2.065 0.57214-1.1358 1.4439-1.7842 3.0795-1.441 3.6348 0.91775 1.485 2.2073 1.2304 2.899-0.57213zm-0.7659-8.9476c-0.95085-2.4779-3.6271 0.0116-3.6271 3.374v2.5998l2.139-2.1389c1.3397-1.3397 1.8958-2.7726 1.4882-3.8348zm-94.18-20.942c-1.1946-2.8592-1.282-4.4294-0.42378-7.6166 1.1829-4.3931 2.6916-5.4512 6.4337-4.512 3.335 0.83702 4.8967 6.3566 3.2371 11.441-1.0132 3.104-1.6912 3.7071-4.4683 3.9744-2.9299 0.28204-3.4319-0.0632-4.7787-3.2866zm5.8552 0.72143c0.23142-0.4125 0.73556-2.1 1.1203-3.75l0.69956-3-2.6846 2.646c-1.4765 1.4553-2.3775 3.1428-2.0023 3.75 0.78469 1.2696 2.2517 1.4508 2.867 0.35399zm-0.08909-10.436c-1.5448-1.5448-2.8538-0.26232-3.7625 3.6864l-0.69041 3 2.8333-2.7364c2.2213-2.1454 2.5712-2.9985 1.6196-3.95zm9.7864 7.1864c0-4.6667-0.33333-6-1.5-6-2.1175 0-1.8633-1.7352 0.43426-2.9648 4.4588-2.3863 5.0657-1.5518 5.0657 6.9648 0 7.3333-0.16667 8-2 8-1.7778 0-2-0.66667-2-6zm13 0c0-4.6667-0.33333-6-1.5-6-2.1175 0-1.8633-1.7352 0.43426-2.9648 3.6619-1.9598 4.0657-1.268 4.0657 6.9648 0 6.4444-0.29167 8-1.5 8-1.1667 0-1.5-1.3333-1.5-6zm9.4162 2.4537c-1.3112-3.1382-1.3444-4.2826-0.22619-7.8151 1.0304-3.2551 1.8436-4.1938 3.81-4.3976 1.375-0.14248 3.095 0.12919 3.8223 0.60371 2.0703 1.3508 3.0281 7.3834 1.7836 11.234-0.92323 2.8564-1.6469 3.4738-4.3798 3.7369-2.9407 0.28307-3.4301-0.059-4.81-3.3615zm5.8865 0.79634c0.23142-0.4125 0.73556-2.1 1.1203-3.75l0.69956-3-2.6846 2.646c-1.4765 1.4553-2.3775 3.1428-2.0023 3.75 0.78469 1.2696 2.2517 1.4508 2.867 0.35399zm-0.08909-10.436c-1.5448-1.5448-2.8538-0.26232-3.7625 3.6864l-0.69041 3 2.8333-2.7364c2.2213-2.1454 2.5712-2.9985 1.6196-3.95zm9.7864 7.1864c0-4.6667-0.33333-6-1.5-6-2.1175 0-1.8633-1.7352 0.43426-2.9648 4.4588-2.3863 5.0657-1.5518 5.0657 6.9648 0 7.3333-0.16667 8-2 8-1.7778 0-2-0.66667-2-6zm13 0c0-4.6667-0.33333-6-1.5-6-2.1175 0-1.8633-1.7352 0.43426-2.9648 3.6619-1.9598 4.0657-1.268 4.0657 6.9648 0 6.4444-0.29167 8-1.5 8-1.1667 0-1.5-1.3333-1.5-6zm13 0.11663c0-5.2456-0.24391-5.9525-2.25-6.5213l-2.25-0.63796 2.5-1.4432c4.589-2.6492 5-2.116 5 6.4859 0 6.4444-0.29167 8-1.5 8-1.1634 0-1.5-1.3204-1.5-5.8834zm12-0.11663c0-4.6667-0.33333-6-1.5-6-2.1175 0-1.8633-1.7352 0.43426-2.9648 4.4588-2.3863 5.0657-1.5518 5.0657 6.9648 0 7.3333-0.16667 8-2 8-1.7778 0-2-0.66667-2-6zm-91.553-27.471c-1.1946-2.8592-1.282-4.4294-0.42378-7.6166 1.1829-4.3931 2.6916-5.4512 6.4337-4.512 3.335 0.83702 4.8967 6.3566 3.2371 11.441-1.0132 3.104-1.6912 3.7071-4.4683 3.9744-2.9299 0.28204-3.4319-0.0632-4.7787-3.2866zm5.8552 0.72143c0.23142-0.4125 0.73556-2.1 1.1203-3.75l0.69956-3-2.6846 2.646c-1.4765 1.4553-2.3775 3.1428-2.0023 3.75 0.78469 1.2696 2.2517 1.4508 2.867 0.35399zm-0.08909-10.436c-1.5448-1.5448-2.8538-0.26232-3.7625 3.6864l-0.69041 3 2.8333-2.7364c2.2213-2.1454 2.5712-2.9985 1.6196-3.95zm9.7864 7.1864c0-4.6667-0.33333-6-1.5-6-2.1175 0-1.8633-1.7352 0.43426-2.9648 4.4588-2.3863 5.0657-1.5518 5.0657 6.9648 0 7.3333-0.16667 8-2 8-1.7778 0-2-0.66667-2-6zm13 0c0-4.6667-0.33333-6-1.5-6-2.1175 0-1.8633-1.7352 0.43426-2.9648 3.6619-1.9598 4.0657-1.268 4.0657 6.9648 0 6.4444-0.29167 8-1.5 8-1.1667 0-1.5-1.3333-1.5-6zm9.4162 2.4537c-1.3112-3.1382-1.3444-4.2826-0.22619-7.8151 1.0304-3.2551 1.8436-4.1938 3.81-4.3976 1.375-0.14248 3.095 0.12919 3.8223 0.60371 2.0703 1.3508 3.0281 7.3834 1.7836 11.234-0.92323 2.8564-1.6469 3.4738-4.3798 3.7369-2.9407 0.28307-3.4301-0.059-4.81-3.3615zm5.8865 0.79634c0.23142-0.4125 0.73556-2.1 1.1203-3.75l0.69956-3-2.6846 2.646c-1.4765 1.4553-2.3775 3.1428-2.0023 3.75 0.78469 1.2696 2.2517 1.4508 2.867 0.35399zm-0.08909-10.436c-1.5448-1.5448-2.8538-0.26232-3.7625 3.6864l-0.69041 3 2.8333-2.7364c2.2213-2.1454 2.5712-2.9985 1.6196-3.95zm7.1806 10.665c-1.8321-2.7961-1.4776-9.4685 0.63833-12.018 1.7973-2.1656 5.6368-1.7709 7.4107 0.76173 2.1813 3.1142 2.0258 10.043-0.27204 12.122-2.6486 2.397-5.8744 2.0377-7.777-0.86611zm5.9988-1.0607c0.33384-0.86998 0.60699-2.5057 0.60699-3.6349 0-1.886-0.16799-1.8395-2.065 0.57214-1.1357 1.4439-1.7842 3.0795-1.441 3.6348 0.91775 1.485 2.2073 1.2304 2.899-0.57213zm-0.7659-8.9476c-0.95087-2.4779-3.6271 0.0116-3.6271 3.374v2.5998l2.1389-2.1389c1.3397-1.3397 1.8958-2.7726 1.4882-3.8348zm8.0279 10.701c-2.1011-2.3217-2.1562-9.0107-0.09828-11.949 1.8353-2.6203 5.6316-2.9055 7.5709-0.56882 0.75484 0.90954 1.3724 3.7654 1.3724 6.3463s-0.6176 5.4368-1.3724 6.3463c-1.8142 2.186-5.4121 2.1017-7.4726-0.17505zm5.145-1.3713c0.66-0.66 1.1858-2.3475 1.1684-3.75l-0.0316-2.55-2.4827 2.8224c-3.0957 3.5193-1.868 6.6915 1.3459 3.4776zm-1.3735-6.3282c1.9006-2.9006 1.2019-5.2382-1.0156-3.3979-1.2271 1.0184-2.0768 5.9261-1.026 5.9261 0.21174 0 1.1304-1.1377 2.0416-2.5282zm11.573 3.6449c0-5.2456-0.24391-5.9525-2.25-6.5213l-2.25-0.63796 2.5-1.4432c4.589-2.6492 5-2.116 5 6.4859 0 6.4444-0.29167 8-1.5 8-1.1634 0-1.5-1.3204-1.5-5.8834zm12-0.11663c0-4.6667-0.33333-6-1.5-6-2.1175 0-1.8633-1.7352 0.43426-2.9648 4.4588-2.3863 5.0657-1.5518 5.0657 6.9648 0 7.3333-0.16667 8-2 8-1.7778 0-2-0.66667-2-6zm-91.553-27.471c-1.1946-2.8592-1.282-4.4294-0.42378-7.6166 1.1829-4.3931 2.6916-5.4512 6.4337-4.512 3.335 0.83702 4.8967 6.3566 3.2371 11.441-1.0132 3.104-1.6912 3.7071-4.4683 3.9744-2.9299 0.28203-3.4319-0.06318-4.7787-3.2866zm5.8552 0.72143c0.23142-0.4125 0.73556-2.1 1.1203-3.75l0.69956-3-2.6846 2.646c-1.4765 1.4553-2.3775 3.1428-2.0023 3.75 0.78469 1.2696 2.2517 1.4508 2.867 0.35399zm-0.08909-10.436c-1.5448-1.5448-2.8538-0.26231-3.7625 3.6864l-0.69041 3 2.8333-2.7364c2.2213-2.1454 2.5712-2.9985 1.6196-3.95zm9.7864 7.1864c0-4.6667-0.33333-6-1.5-6-2.1175 0-1.8633-1.7352 0.43426-2.9648 4.4588-2.3863 5.0657-1.5519 5.0657 6.9648 0 7.3333-0.16667 8-2 8-1.7778 0-2-0.66667-2-6zm13 0c0-4.6667-0.33333-6-1.5-6-2.1175 0-1.8633-1.7352 0.43426-2.9648 3.6619-1.9598 4.0657-1.268 4.0657 6.9648 0 6.4444-0.29167 8-1.5 8-1.1667 0-1.5-1.3333-1.5-6zm9.4162 2.4537c-1.3112-3.1382-1.3444-4.2826-0.22619-7.8151 1.0304-3.2551 1.8436-4.1938 3.81-4.3976 1.375-0.14248 3.095 0.12919 3.8223 0.60371 2.0703 1.3508 3.0281 7.3834 1.7836 11.234-0.92323 2.8564-1.6469 3.4738-4.3798 3.7369-2.9407 0.28307-3.4301-0.059-4.81-3.3615zm5.8865 0.79634c0.23142-0.4125 0.73556-2.1 1.1203-3.75l0.69956-3-2.6846 2.646c-1.4765 1.4553-2.3775 3.1428-2.0023 3.75 0.78469 1.2696 2.2517 1.4508 2.867 0.35399zm-0.08909-10.436c-1.5448-1.5448-2.8538-0.26231-3.7625 3.6864l-0.69041 3 2.8333-2.7364c2.2213-2.1454 2.5712-2.9985 1.6196-3.95zm7.1806 10.665c-1.8321-2.7961-1.4776-9.4685 0.63833-12.018 1.7973-2.1656 5.6368-1.7709 7.4107 0.76172 2.1813 3.1143 2.0258 10.043-0.27204 12.123-2.6486 2.397-5.8744 2.0377-7.777-0.86612zm5.9988-1.0607c0.33384-0.86998 0.60699-2.5057 0.60699-3.6349 0-1.8861-0.16799-1.8395-2.065 0.57213-1.1357 1.4439-1.7842 3.0795-1.441 3.6349 0.91775 1.4849 2.2073 1.2304 2.899-0.57213zm-0.7659-8.9476c-0.95087-2.4779-3.6271 0.01157-3.6271 3.374v2.5998l2.1389-2.1389c1.3397-1.3397 1.8958-2.7726 1.4882-3.8348zm10.373 6.5293c0-4.6667-0.33333-6-1.5-6-2.1175 0-1.8633-1.7352 0.43426-2.9648 3.6619-1.9598 4.0657-1.268 4.0657 6.9648 0 6.4444-0.29167 8-1.5 8-1.1667 0-1.5-1.3333-1.5-6zm9.3233 2.25c-1.3712-3.2655-1.3969-4.2668-0.19897-7.75 1.0786-3.1361 1.9424-4.0657 3.9999-4.3043 3.8254-0.44356 5.8757 2.1531 5.8757 7.4415 0 6.1139-1.3678 8.3628-5.0862 8.3628-2.5384 0-3.2651-0.5937-4.5905-3.75zm5.9794 1c0.23142-0.4125 0.73556-2.1 1.1203-3.75l0.69956-3-2.6846 2.646c-1.4765 1.4553-2.3775 3.1428-2.0023 3.75 0.78469 1.2696 2.2517 1.4508 2.867 0.35399zm-0.0891-10.436c-1.5448-1.5448-2.8538-0.26231-3.7625 3.6864l-0.69041 3 2.8333-2.7364c2.2214-2.1454 2.5712-2.9985 1.6196-3.95zm9.7864 7.1864c0-4.6667-0.33333-6-1.5-6-2.1175 0-1.8633-1.7352 0.43426-2.9648 4.4588-2.3863 5.0657-1.5519 5.0657 6.9648 0 7.3333-0.16667 8-2 8-1.7778 0-2-0.66667-2-6zm-91.553-27.471c-1.1946-2.8592-1.282-4.4294-0.42378-7.6166 1.1829-4.3931 2.6916-5.4512 6.4337-4.512 3.335 0.83702 4.8967 6.3566 3.2371 11.441-1.0132 3.104-1.6912 3.7071-4.4683 3.9744-2.9299 0.28203-3.4319-0.06318-4.7787-3.2866zm5.8552 0.72143c0.23142-0.4125 0.73556-2.1 1.1203-3.75l0.69956-3-2.6846 2.646c-1.4765 1.4553-2.3775 3.1428-2.0023 3.75 0.78469 1.2696 2.2517 1.4508 2.867 0.35399zm-0.08909-10.436c-1.5448-1.5448-2.8538-0.26231-3.7625 3.6864l-0.69041 3 2.8333-2.7364c2.2213-2.1454 2.5712-2.9985 1.6196-3.95zm7.1806 10.665c-1.8321-2.7961-1.4776-9.4685 0.63833-12.018 1.7973-2.1656 5.6368-1.7709 7.4107 0.76172 2.1813 3.1143 2.0258 10.043-0.27204 12.123-2.6486 2.397-5.8744 2.0377-7.777-0.86612zm5.9988-1.0607c0.33384-0.86998 0.60699-2.5057 0.60699-3.6349 0-1.8861-0.16799-1.8395-2.065 0.57213-1.1357 1.4439-1.7842 3.0795-1.441 3.6349 0.91775 1.4849 2.2073 1.2304 2.899-0.57213zm-0.7659-8.9476c-0.95087-2.4779-3.6271 0.01157-3.6271 3.374v2.5998l2.1389-2.1389c1.3397-1.3397 1.8958-2.7726 1.4882-3.8348zm10.373 6.5293c0-4.6667-0.33333-6-1.5-6-2.1175 0-1.8633-1.7352 0.43426-2.9648 3.6619-1.9598 4.0657-1.268 4.0657 6.9648 0 6.4444-0.29167 8-1.5 8-1.1667 0-1.5-1.3333-1.5-6zm9.4162 2.4537c-1.3112-3.1382-1.3444-4.2826-0.22619-7.8151 1.0304-3.2551 1.8436-4.1938 3.81-4.3976 1.375-0.14248 3.095 0.12919 3.8223 0.60371 2.0703 1.3508 3.0281 7.3834 1.7836 11.234-0.92323 2.8564-1.6469 3.4738-4.3798 3.7369-2.9407 0.28307-3.4301-0.059-4.81-3.3615zm5.8865 0.79634c0.23142-0.4125 0.73556-2.1 1.1203-3.75l0.69956-3-2.6846 2.646c-1.4765 1.4553-2.3775 3.1428-2.0023 3.75 0.78469 1.2696 2.2517 1.4508 2.867 0.35399zm-0.08909-10.436c-1.5448-1.5448-2.8538-0.26231-3.7625 3.6864l-0.69041 3 2.8333-2.7364c2.2213-2.1454 2.5712-2.9985 1.6196-3.95zm7.1806 10.665c-1.8321-2.7961-1.4776-9.4685 0.63833-12.018 1.7973-2.1656 5.6368-1.7709 7.4107 0.76172 2.1813 3.1143 2.0258 10.043-0.27204 12.123-2.6486 2.397-5.8744 2.0377-7.777-0.86612zm5.9988-1.0607c0.33384-0.86998 0.60699-2.5057 0.60699-3.6349 0-1.8861-0.16799-1.8395-2.065 0.57213-1.1357 1.4439-1.7842 3.0795-1.441 3.6349 0.91775 1.4849 2.2073 1.2304 2.899-0.57213zm-0.7659-8.9476c-0.95087-2.4779-3.6271 0.01157-3.6271 3.374v2.5998l2.1389-2.1389c1.3397-1.3397 1.8958-2.7726 1.4882-3.8348zm45.373 11.263c0-0.14647-5.175-5.4266-11.5-11.734l-11.5-11.467v23.467h11.5c6.325 0 11.5-0.11984 11.5-0.26631z" fill="#6c757d"/>
</svg>
