<?xml version="1.0" encoding="UTF-8" standalone="no"?>
<!-- Created with Inkscape (http://www.inkscape.org/) -->

<svg
   xmlns:dc="http://purl.org/dc/elements/1.1/"
   xmlns:cc="http://creativecommons.org/ns#"
   xmlns:rdf="http://www.w3.org/1999/02/22-rdf-syntax-ns#"
   xmlns:svg="http://www.w3.org/2000/svg"
   xmlns="http://www.w3.org/2000/svg"
   xmlns:sodipodi="http://sodipodi.sourceforge.net/DTD/sodipodi-0.dtd"
   xmlns:inkscape="http://www.inkscape.org/namespaces/inkscape"
   width="125"
   height="168.15289"
   version="1.1"
   viewBox="0 0 125 168.1529"
   id="svg1023"
   sodipodi:docname="data.svg"
   inkscape:version="0.92.3 (2405546, 2018-03-11)">
  <defs
     id="defs1027" />
  <sodipodi:namedview
     pagecolor="#ffffff"
     bordercolor="#666666"
     borderopacity="1"
     objecttolerance="10"
     gridtolerance="10"
     guidetolerance="10"
     inkscape:pageopacity="0"
     inkscape:pageshadow="2"
     inkscape:window-width="1920"
     inkscape:window-height="1017"
     id="namedview1025"
     showgrid="false"
     fit-margin-top="0"
     fit-margin-left="0"
     fit-margin-right="0"
     fit-margin-bottom="0"
     inkscape:zoom="4.7555376"
     inkscape:cx="63.935093"
     inkscape:cy="86.008453"
     inkscape:window-x="-8"
     inkscape:window-y="45"
     inkscape:window-maximized="1"
     inkscape:current-layer="svg1023" />
  <metadata
     id="metadata1019">
    <rdf:RDF>
      <cc:Work
         rdf:about="">
        <dc:format>image/svg+xml</dc:format>
        <dc:type
           rdf:resource="http://purl.org/dc/dcmitype/StillImage" />
        <dc:title></dc:title>
      </cc:Work>
    </rdf:RDF>
  </metadata>
  <path
     d="M 9.1059479,167.26943 C 5.421925,165.77743 1.0173975,159.73489 0.3777936,155.29536 0.04534153,152.98765 -0.09436934,119.64714 0.06732167,81.203896 0.35274345,13.345474 0.41828386,11.21146 2.3164356,7.9894396 3.3917423,6.1638286 5.5129555,3.7444133 7.030265,2.6129063 9.7084817,0.6155938 10.904089,0.5474934 48.04552,0.2777917 L 86.301759,0 125,38.662241 124.996,98.301608 c -0.004,57.787362 -0.064,59.739382 -1.94621,62.826402 -1.06841,1.75231 -3.37622,4.06012 -5.12854,5.12853 -3.07661,1.87581 -4.96373,1.94051 -54.996337,1.88421 -28.496178,-0.0321 -52.714328,-0.42437 -53.8193351,-0.87178 z M 115.39661,158.76848 c 1.69261,-1.53181 1.78761,-4.62453 1.78761,-58.16436 V 44.057765 H 99.693112 c -15.048094,0 -17.574109,-0.216001 -18.085113,-1.54631 C 81.281637,41.661 81.014636,33.522799 81.014636,24.426343 V 7.8882396 H 46.800423 c -32.584203,0 -34.305214,0.09058 -36.115225,1.900611 -1.0453067,1.0453074 -2.1649137,3.3548214 -2.4879157,5.1321324 -0.322982,1.777411 -0.4575329,34.308214 -0.2989219,72.291451 0.2769617,66.320416 0.3622723,69.141436 2.1506136,71.117446 1.847611,2.04101 2.262214,2.05721 52.711328,2.05721 45.943288,0 51.021318,-0.15606 52.636328,-1.61781 z M 12.045966,151.12753 c -1.167807,-2.79501 -1.253208,-4.33002 -0.414273,-7.44564 1.156308,-4.29453 2.631217,-5.32884 6.28934,-4.41073 3.26012,0.81824 4.786829,6.21394 3.164419,11.18407 -0.990466,3.03432 -1.65321,3.62392 -4.368027,3.88522 -2.864118,0.27572 -3.354921,-0.0618 -4.671429,-3.21282 z m 5.723836,0.70525 c 0.226221,-0.40324 0.719054,-2.05291 1.095207,-3.66582 l 0.683864,-2.93262 -2.624317,2.58661 c -1.443409,1.42261 -2.324114,3.07222 -1.957412,3.66583 0.767075,1.2411 2.201214,1.41821 2.802618,0.34605 z m -0.08709,-10.20207 c -1.510109,-1.5101 -2.789717,-0.25644 -3.678023,3.60363 l -0.674914,2.93262 2.769717,-2.67502 c 2.171414,-2.09721 2.513516,-2.93122 1.58321,-3.86133 z m 9.56676,7.02515 c 0,-4.56193 -0.325852,-5.86534 -1.466309,-5.86534 -2.070013,0 -1.821512,-1.69621 0.424512,-2.89822 4.358727,-2.33271 4.952031,-1.51701 4.952031,6.80845 0,7.16874 -0.162931,7.82045 -1.955112,7.82045 -1.737911,0 -1.955112,-0.65171 -1.955112,-5.86534 z m 12.708079,0 c 0,-4.56193 -0.325852,-5.86534 -1.466309,-5.86534 -2.070013,0 -1.821512,-1.69621 0.424512,-2.89822 3.579723,-1.91581 3.974425,-1.2395 3.974425,6.80845 0,6.29974 -0.285122,7.82045 -1.466309,7.82045 -1.140507,0 -1.466309,-1.30341 -1.466309,-5.86534 z m 9.204857,2.39861 c -1.281808,-3.06782 -1.314208,-4.18652 -0.221111,-7.63964 1.007306,-3.18202 1.802211,-4.09973 3.724523,-4.29893 1.344108,-0.13928 3.025519,0.12629 3.736523,0.59016 2.023813,1.32051 2.960119,7.21765 1.743611,10.98207 -0.902505,2.79232 -1.60991,3.39582 -4.281526,3.65302 -2.874718,0.27673 -3.353121,-0.0577 -4.70203,-3.28602 z m 5.754436,0.77848 c 0.226222,-0.40324 0.719055,-2.05291 1.095207,-3.66582 l 0.683864,-2.93262 -2.624316,2.58661 c -1.443409,1.42261 -2.324115,3.07222 -1.957412,3.66583 0.767074,1.2411 2.201213,1.41821 2.802617,0.34605 z m -0.08709,-10.20207 c -1.51011,-1.5101 -2.789718,-0.25644 -3.678023,3.60363 l -0.674915,2.93262 2.769718,-2.67502 c 2.171413,-2.09721 2.513515,-2.93122 1.58321,-3.86133 z m 9.566759,7.02515 c 0,-4.56193 -0.325852,-5.86534 -1.466309,-5.86534 -2.070013,0 -1.821511,-1.69621 0.424513,-2.89822 4.358727,-2.33271 4.952031,-1.51701 4.952031,6.80845 0,7.16874 -0.162931,7.82045 -1.955113,7.82045 -1.73791,0 -1.955112,-0.65171 -1.955112,-5.86534 z m 12.708079,0 c 0,-4.56193 -0.325852,-5.86534 -1.466309,-5.86534 -2.070013,0 -1.821511,-1.69621 0.424513,-2.89822 3.579722,-1.91581 3.974425,-1.2395 3.974425,6.80845 0,6.29974 -0.285122,7.82045 -1.46631,7.82045 -1.140507,0 -1.466309,-1.30341 -1.466309,-5.86534 z m 9.114057,2.19951 c -1.340408,-3.19222 -1.365508,-4.17102 -0.194501,-7.57604 1.054407,-3.06572 1.898812,-3.97443 3.910124,-4.20773 3.739524,-0.43361 5.743836,2.10481 5.743836,7.27444 0,5.97664 -1.337108,8.17516 -4.972031,8.17516 -2.481415,0 -3.19182,-0.58038 -4.487428,-3.66583 z m 5.845237,0.97756 c 0.226221,-0.40324 0.719054,-2.05291 1.095206,-3.66582 l 0.683865,-2.93262 -2.624317,2.58661 c -1.443409,1.42261 -2.324114,3.07222 -1.957412,3.66583 0.767085,1.2411 2.201214,1.41821 2.802618,0.34604 z m -0.0871,-10.20207 c -1.510109,-1.5101 -2.789717,-0.25643 -3.678023,3.60363 l -0.674914,2.93262 2.769717,-2.67502 c 2.171514,-2.09721 2.513516,-2.93122 1.58321,-3.86133 z m 7.019444,10.42607 c -1.791011,-2.73332 -1.444509,-9.25596 0.624014,-11.74807 1.757006,-2.11702 5.510326,-1.73121 7.244446,0.74463 2.13231,3.04432 1.98031,9.81756 -0.26595,11.85007 -2.58911,2.34322 -5.74253,1.99202 -7.60244,-0.84666 z m 5.86413,-1.03691 c 0.32638,-0.85045 0.59339,-2.44941 0.59339,-3.55332 0,-1.84371 -0.16422,-1.79821 -2.01862,0.5593 -1.1103,1.41151 -1.74421,3.01042 -1.4086,3.55323 0.89714,1.45171 2.15771,1.2028 2.83391,-0.5593 z m -0.74871,-8.74675 c -0.92951,-2.42232 -3.54572,0.0113 -3.54572,3.29832 v 2.54142 l 2.09101,-2.09092 c 1.30961,-1.30961 1.85321,-2.71041 1.45481,-3.74872 z M 12.045076,121.80131 c -1.167807,-2.79502 -1.253208,-4.33003 -0.414273,-7.44565 1.156308,-4.29452 2.631217,-5.32883 6.28934,-4.41072 3.26012,0.81823 4.786829,6.21394 3.164419,11.18407 -0.990456,3.03432 -1.65321,3.62392 -4.368027,3.88522 -2.864118,0.2757 -3.354921,-0.0618 -4.671429,-3.21282 z m 5.723836,0.70525 c 0.226221,-0.40325 0.719054,-2.05292 1.095207,-3.66583 l 0.683864,-2.93262 -2.624317,2.58662 c -1.443409,1.42261 -2.324114,3.07222 -1.957412,3.66582 0.767085,1.24111 2.201214,1.41821 2.802618,0.34606 z m -0.08709,-10.20207 c -1.510109,-1.51011 -2.789717,-0.25643 -3.678023,3.60362 l -0.674914,2.93262 2.769717,-2.67501 c 2.171414,-2.09722 2.513516,-2.93122 1.58321,-3.86133 z m 9.56676,7.02515 c 0,-4.56193 -0.325852,-5.86534 -1.466309,-5.86534 -2.070013,0 -1.821512,-1.69621 0.424512,-2.89822 4.358727,-2.33271 4.952031,-1.51701 4.952031,6.80844 0,7.16875 -0.162931,7.82045 -1.955112,7.82045 -1.737911,0 -1.955112,-0.6517 -1.955112,-5.86533 z m 12.708079,0 c 0,-4.56193 -0.325852,-5.86534 -1.466309,-5.86534 -2.070013,0 -1.821512,-1.69621 0.424512,-2.89822 3.579723,-1.91581 3.974425,-1.23951 3.974425,6.80844 0,6.29974 -0.285122,7.82045 -1.466309,7.82045 -1.140507,0 -1.466309,-1.30341 -1.466309,-5.86533 z m 9.204857,2.39861 c -1.281808,-3.06782 -1.314208,-4.18653 -0.221111,-7.63975 1.007306,-3.18202 1.802211,-4.09962 3.724523,-4.29892 1.344108,-0.13929 3.025519,0.12629 3.736523,0.59015 2.023813,1.32051 2.960119,7.21765 1.743611,10.98207 -0.902505,2.79232 -1.60991,3.39582 -4.281526,3.65302 -2.874718,0.27672 -3.353121,-0.0577 -4.70203,-3.28602 z m 5.754436,0.77848 c 0.226222,-0.40325 0.719055,-2.05292 1.095207,-3.66583 l 0.683864,-2.93262 -2.624316,2.58662 c -1.443409,1.42261 -2.324115,3.07222 -1.957412,3.66582 0.767084,1.24111 2.201213,1.41821 2.802617,0.34606 z m -0.08709,-10.20207 c -1.51011,-1.51011 -2.789718,-0.25643 -3.678023,3.60362 l -0.674915,2.93262 2.769718,-2.67501 c 2.171413,-2.09722 2.513515,-2.93122 1.58321,-3.86133 z m 9.566759,7.02515 c 0,-4.56193 -0.325852,-5.86534 -1.466309,-5.86534 -2.070013,0 -1.821511,-1.69621 0.424513,-2.89822 4.358727,-2.33271 4.952031,-1.51701 4.952031,6.80844 0,7.16875 -0.162931,7.82045 -1.955113,7.82045 -1.73791,0 -1.955112,-0.6517 -1.955112,-5.86533 z m 12.708079,0 c 0,-4.56193 -0.325852,-5.86534 -1.466309,-5.86534 -2.070013,0 -1.821511,-1.69621 0.424513,-2.89822 3.579722,-1.91581 3.974425,-1.23951 3.974425,6.80844 0,6.29974 -0.285122,7.82045 -1.46631,7.82045 -1.140507,0 -1.466309,-1.30341 -1.466309,-5.86533 z m 12.70808,0.11401 c 0,-5.12784 -0.238442,-5.81894 -2.199514,-6.37494 l -2.199514,-0.62364 2.443915,-1.41081 c 4.486028,-2.58971 4.887831,-2.06851 4.887831,6.34034 0,6.29974 -0.285122,7.82045 -1.466309,7.82045 -1.137307,0 -1.466309,-1.29081 -1.466309,-5.75133 z m 11.731068,-0.11401 c 0,-4.56193 -0.32584,-5.86534 -1.46631,-5.86534 -2.070007,0 -1.821506,-1.69621 0.42452,-2.89822 4.35872,-2.33271 4.95203,-1.51701 4.95203,6.80844 0,7.16875 -0.16293,7.82045 -1.95512,7.82045 -1.73791,0 -1.95511,-0.6517 -1.95511,-5.86533 z M 12.044296,92.475637 c -1.167807,-2.795018 -1.253208,-4.330027 -0.414273,-7.445647 1.156308,-4.294527 2.631217,-5.328833 6.28934,-4.410727 3.26012,0.818235 4.786829,6.213938 3.164419,11.184069 -0.990466,3.034319 -1.65321,3.623923 -4.368027,3.885225 -2.864118,0.275711 -3.354921,-0.06178 -4.671429,-3.21282 z m 5.723836,0.705244 c 0.226221,-0.403243 0.719054,-2.052913 1.095207,-3.665823 l 0.683864,-2.932718 -2.624317,2.586616 c -1.443409,1.422609 -2.324114,3.072219 -1.957412,3.665823 0.767085,1.241107 2.201214,1.418209 2.802618,0.346042 z m -0.08709,-10.202064 c -1.510109,-1.510109 -2.789717,-0.256431 -3.678023,3.603623 l -0.674914,2.932718 2.769717,-2.675017 c 2.171414,-2.097213 2.513516,-2.931218 1.58321,-3.861324 z m 9.56676,7.025144 c 0,-4.561928 -0.325852,-5.865336 -1.466309,-5.865336 -2.070013,0 -1.821512,-1.696211 0.424512,-2.898218 4.358727,-2.332715 4.952031,-1.51701 4.952031,6.808442 0,7.168745 -0.162931,7.820449 -1.955112,7.820449 -1.737911,0 -1.955112,-0.651704 -1.955112,-5.865337 z m 12.708079,0 c 0,-4.561928 -0.325852,-5.865336 -1.466309,-5.865336 -2.070013,0 -1.821512,-1.696211 0.424512,-2.898218 3.579723,-1.915812 3.974425,-1.239508 3.974425,6.808442 0,6.299739 -0.285122,7.820449 -1.466309,7.820449 -1.140507,0 -1.466309,-1.303408 -1.466309,-5.865337 z m 9.204857,2.398615 c -1.281808,-3.067819 -1.314208,-4.186526 -0.221111,-7.639748 1.007306,-3.182019 1.802211,-4.099725 3.724523,-4.298926 1.344108,-0.139281 3.025519,0.12629 3.736523,0.590163 2.023813,1.320509 2.960119,7.217645 1.743611,10.982069 -0.902505,2.792317 -1.60991,3.395821 -4.281526,3.653023 -2.874718,0.276721 -3.353121,-0.05768 -4.70203,-3.286021 z m 5.754436,0.778465 c 0.226222,-0.403243 0.719055,-2.052913 1.095207,-3.665823 l 0.683864,-2.932718 -2.624316,2.586616 c -1.443409,1.422609 -2.324115,3.072219 -1.957412,3.665823 0.767084,1.241107 2.201213,1.418209 2.802617,0.346042 z M 54.828083,82.978977 C 53.317973,81.468868 52.038365,82.722546 51.15006,86.5826 l -0.674915,2.932718 2.769718,-2.675017 c 2.171413,-2.097213 2.513515,-2.931218 1.58321,-3.861324 z m 7.019443,10.426065 c -1.791011,-2.733317 -1.444409,-9.255957 0.624004,-11.748073 1.757011,-2.117013 5.510335,-1.731111 7.244345,0.744635 2.132314,3.044319 1.980313,9.817561 -0.265931,11.850074 -2.589116,2.34321 -5.742536,1.99201 -7.602448,-0.846676 z m 5.864137,-1.036906 c 0.326342,-0.850455 0.593364,-2.449415 0.593364,-3.553322 0,-1.843712 -0.164221,-1.798211 -2.018613,0.559303 -1.110207,1.411509 -1.744111,3.010419 -1.408709,3.553222 0.897156,1.451709 2.157714,1.202808 2.833918,-0.559293 z m -0.748715,-8.746755 c -0.929526,-2.422315 -3.545722,0.01134 -3.545722,3.298321 v 2.541416 l 2.090913,-2.090913 c 1.309608,-1.309608 1.853212,-2.710417 1.454809,-3.748724 z m 7.847749,10.461066 c -2.053913,-2.269615 -2.107813,-8.808455 -0.09607,-11.681073 1.794112,-2.561516 5.505235,-2.840318 7.400947,-0.556054 0.737894,0.889126 1.341608,3.680923 1.341608,6.203839 0,2.523016 -0.603744,5.314833 -1.341608,6.203839 -1.773511,2.13691 -5.290633,2.05451 -7.304846,-0.171121 z m 5.029531,-1.340509 c 0.645184,-0.645184 1.159208,-2.294814 1.142208,-3.665823 l -0.03089,-2.492815 -2.427015,2.759017 c -3.02622,3.440321 -1.826112,6.541341 1.315707,3.399521 z M 78.49752,86.5558 c 1.857912,-2.835518 1.174907,-5.120632 -0.992806,-3.321621 -1.199608,0.995546 -2.030213,5.793136 -1.003006,5.793136 0.206991,0 1.105006,-1.112207 1.995812,-2.471415 z m 11.313071,3.563122 c 0,-5.127832 -0.238442,-5.818936 -2.199514,-6.37494 l -2.199514,-0.623644 2.443915,-1.410809 c 4.486028,-2.589716 4.887831,-2.068512 4.887831,6.34034 0,6.299739 -0.285122,7.820449 -1.466309,7.820449 -1.137307,0 -1.466309,-1.290808 -1.466309,-5.751336 z m 11.731069,-0.114011 c 0,-4.561928 -0.32585,-5.865336 -1.46631,-5.865336 -2.070008,0 -1.821507,-1.696211 0.42452,-2.898218 4.35872,-2.332715 4.95203,-1.51701 4.95203,6.808442 0,7.168745 -0.16293,7.820449 -1.95512,7.820449 -1.73791,0 -1.95511,-0.651704 -1.95511,-5.865337 z M 12.043106,63.150744 c -1.167807,-2.795018 -1.253208,-4.330027 -0.414273,-7.445647 1.156308,-4.294526 2.631217,-5.328833 6.28934,-4.410727 3.26012,0.818235 4.786829,6.213939 3.164419,11.18407 -0.990466,3.034319 -1.65321,3.623922 -4.368027,3.885224 -2.864118,0.275702 -3.354921,-0.06176 -4.671429,-3.21282 z m 5.723836,0.705244 c 0.226221,-0.403242 0.719054,-2.052913 1.095207,-3.665823 l 0.683864,-2.932718 -2.624317,2.586616 c -1.443409,1.422609 -2.324114,3.072219 -1.957412,3.665823 0.767085,1.241108 2.201214,1.418209 2.802618,0.346042 z m -0.08709,-10.202063 c -1.510109,-1.51011 -2.789717,-0.256422 -3.678023,3.603622 l -0.674914,2.932718 2.769717,-2.675016 c 2.171414,-2.097213 2.513516,-2.931219 1.58321,-3.861324 z m 9.56676,7.025143 c 0,-4.561928 -0.325852,-5.865336 -1.466309,-5.865336 -2.070013,0 -1.821512,-1.696211 0.424512,-2.898218 4.358727,-2.332715 4.952031,-1.51711 4.952031,6.808442 0,7.168745 -0.162931,7.820449 -1.955112,7.820449 -1.737911,0 -1.955112,-0.651704 -1.955112,-5.865337 z m 12.708079,0 c 0,-4.561928 -0.325852,-5.865336 -1.466309,-5.865336 -2.070013,0 -1.821512,-1.696211 0.424512,-2.898218 3.579723,-1.915812 3.974425,-1.239508 3.974425,6.808442 0,6.29974 -0.285122,7.820449 -1.466309,7.820449 -1.140507,0 -1.466309,-1.303408 -1.466309,-5.865337 z m 9.204857,2.398615 c -1.281808,-3.067819 -1.314208,-4.186526 -0.221111,-7.639747 1.007306,-3.18202 1.802211,-4.099726 3.724523,-4.298927 1.344108,-0.139281 3.025519,0.126291 3.736523,0.590164 2.023813,1.320508 2.960119,7.217645 1.743611,10.982068 -0.902505,2.792317 -1.60991,3.395821 -4.281526,3.653023 -2.874718,0.276722 -3.353121,-0.05768 -4.70203,-3.286021 z m 5.754436,0.778465 c 0.226222,-0.403242 0.719055,-2.052913 1.095207,-3.665823 l 0.683864,-2.932718 -2.624316,2.586616 c -1.443409,1.422609 -2.324115,3.072219 -1.957412,3.665823 0.767084,1.241108 2.201213,1.418209 2.802617,0.346042 z m -0.08709,-10.202063 c -1.51011,-1.51011 -2.789718,-0.256422 -3.678023,3.603622 l -0.674915,2.932718 2.769718,-2.675016 c 2.171413,-2.097213 2.513515,-2.931219 1.58321,-3.861324 z m 7.019443,10.426065 c -1.791011,-2.733317 -1.444409,-9.255958 0.624004,-11.748074 1.757011,-2.117013 5.510335,-1.73111 7.244345,0.744625 2.132314,3.044419 1.980313,9.817561 -0.265931,11.851074 -2.589116,2.343215 -5.742536,1.992012 -7.602448,-0.846685 z m 5.864137,-1.036907 c 0.326342,-0.850455 0.593364,-2.449415 0.593364,-3.553322 0,-1.843811 -0.164221,-1.798211 -2.018613,0.559294 -1.110207,1.411508 -1.744111,3.010418 -1.408709,3.553322 0.897156,1.451609 2.157714,1.202807 2.833918,-0.559294 z m -0.748715,-8.746754 c -0.929526,-2.422315 -3.545722,0.01131 -3.545722,3.29832 v 2.541416 l 2.090913,-2.090913 c 1.309608,-1.309608 1.853212,-2.710417 1.454809,-3.748723 z m 10.140063,6.382739 c 0,-4.561928 -0.325852,-5.865336 -1.466309,-5.865336 -2.070013,0 -1.821511,-1.696211 0.424513,-2.898218 3.579722,-1.915812 3.974425,-1.239508 3.974425,6.808442 0,6.29974 -0.285122,7.820449 -1.46631,7.820449 -1.140507,0 -1.466309,-1.303408 -1.466309,-5.865337 z m 9.114057,2.199514 c -1.340408,-3.19222 -1.365508,-4.171026 -0.194501,-7.576047 1.054406,-3.065719 1.898812,-3.974425 3.910124,-4.207726 3.739524,-0.433603 5.743836,2.104813 5.743836,7.274445 0,5.976637 -1.337108,8.175151 -4.972031,8.175151 -2.481415,0 -3.19182,-0.580374 -4.487428,-3.665823 z m 5.845237,0.977556 c 0.226221,-0.403242 0.719054,-2.052913 1.095206,-3.665823 l 0.683865,-2.932718 -2.624317,2.586616 c -1.443409,1.422609 -2.324114,3.072219 -1.957412,3.665823 0.767085,1.241108 2.201214,1.418209 2.802618,0.346042 z m -0.0871,-10.202063 c -1.510109,-1.51011 -2.789717,-0.256422 -3.678023,3.603622 l -0.674914,2.932718 2.769717,-2.675016 c 2.171514,-2.097213 2.513516,-2.931219 1.58321,-3.861324 z m 9.566755,7.025143 c 0,-4.561928 -0.32584,-5.865336 -1.46631,-5.865336 -2.070007,0 -1.821506,-1.696211 0.42452,-2.898218 4.35872,-2.332715 4.95203,-1.51711 4.95203,6.808442 0,7.168745 -0.16293,7.820449 -1.95512,7.820449 -1.73791,0 -1.95511,-0.651704 -1.95511,-5.865337 z M 12.042216,33.825211 c -1.167807,-2.795017 -1.253208,-4.330027 -0.414273,-7.445646 1.156308,-4.294527 2.631217,-5.328833 6.28934,-4.410728 3.26012,0.818235 4.786829,6.213939 3.164419,11.18407 -0.990466,3.034319 -1.65321,3.623923 -4.368027,3.885224 -2.864118,0.275702 -3.354921,-0.06176 -4.671429,-3.21282 z m 5.723836,0.705245 c 0.226221,-0.403243 0.719054,-2.052913 1.095207,-3.665823 l 0.683864,-2.932719 -2.624317,2.586617 c -1.443409,1.422608 -2.324114,3.072219 -1.957412,3.665822 0.767075,1.241108 2.201214,1.418209 2.802618,0.346043 z m -0.08709,-10.202064 c -1.510109,-1.510109 -2.789717,-0.256422 -3.678023,3.603622 l -0.674914,2.932719 2.769717,-2.675017 c 2.171414,-2.097213 2.513516,-2.931218 1.58321,-3.861324 z m 7.019444,10.426065 c -1.791011,-2.733317 -1.444409,-9.255958 0.624004,-11.748073 1.757011,-2.117013 5.510334,-1.731111 7.244345,0.744624 2.132313,3.044419 1.980312,9.817562 -0.265932,11.851074 -2.589116,2.343215 -5.742536,1.992013 -7.602447,-0.846685 z m 5.864136,-1.036907 c 0.326352,-0.850455 0.593364,-2.449415 0.593364,-3.553322 0,-1.843811 -0.164221,-1.798211 -2.018612,0.559294 -1.110207,1.411509 -1.744111,3.010419 -1.408709,3.553322 0.897155,1.451609 2.157713,1.202807 2.833917,-0.559294 z m -0.748714,-8.746754 c -0.929526,-2.422315 -3.545722,0.01131 -3.545722,3.298321 v 2.541415 l 2.090913,-2.090913 c 1.309608,-1.309608 1.853211,-2.710417 1.454809,-3.748723 z m 10.140063,6.38274 c 0,-4.561929 -0.325852,-5.865337 -1.466309,-5.865337 -2.070013,0 -1.821512,-1.69621 0.424512,-2.898218 3.579723,-1.915812 3.974425,-1.239508 3.974425,6.808443 0,6.299739 -0.285122,7.820448 -1.466309,7.820448 -1.140507,0 -1.466309,-1.303408 -1.466309,-5.865336 z m 9.204857,2.398615 c -1.281808,-3.067819 -1.314208,-4.186526 -0.221111,-7.639748 1.007306,-3.18202 1.802211,-4.099725 3.724523,-4.298927 1.344108,-0.139281 3.025519,0.126291 3.736523,0.590164 2.023813,1.320508 2.960119,7.217645 1.743611,10.982068 -0.902505,2.792318 -1.60991,3.395822 -4.281526,3.653023 -2.874718,0.276722 -3.353121,-0.05768 -4.70203,-3.28602 z m 5.754436,0.778465 c 0.226222,-0.403243 0.719055,-2.052913 1.095207,-3.665823 l 0.683864,-2.932719 -2.624316,2.586617 c -1.443409,1.422608 -2.324115,3.072219 -1.957412,3.665822 0.767074,1.241108 2.201213,1.418209 2.802617,0.346043 z m -0.08709,-10.202064 c -1.51011,-1.510109 -2.789718,-0.256422 -3.678023,3.603622 l -0.674915,2.932719 2.769718,-2.675017 c 2.171413,-2.097213 2.513515,-2.931218 1.58321,-3.861324 z m 7.019443,10.426065 C 60.054525,32.0213 60.401127,25.498659 62.46954,23.006544 c 1.757011,-2.117013 5.510335,-1.731111 7.244345,0.744624 2.132314,3.044419 1.980313,9.817562 -0.265931,11.851074 -2.589116,2.343215 -5.742536,1.992013 -7.602448,-0.846685 z m 5.864137,-1.036907 c 0.326352,-0.850455 0.593364,-2.449415 0.593364,-3.553322 0,-1.843811 -0.164221,-1.798211 -2.018613,0.559294 -1.110207,1.411509 -1.744111,3.010419 -1.408709,3.553322 0.897156,1.451609 2.157714,1.202807 2.833918,-0.559294 z m -0.748715,-8.746754 c -0.929526,-2.422315 -3.545722,0.01131 -3.545722,3.298321 v 2.541415 l 2.090913,-2.090913 c 1.309608,-1.309608 1.853212,-2.710417 1.454809,-3.748723 z m 44.354272,11.010069 c 0,-0.143181 -5.05883,-5.304833 -11.24207,-11.471072 L 88.831094,13.299883 v 22.940143 h 11.242066 c 6.18304,0 11.24207,-0.117151 11.24207,-0.260331 z"
     id="path1021"
     inkscape:connector-curvature="0"
     style="fill:#6c757d;stroke-width:0.97755611" />
</svg>
