<?xml version="1.0" encoding="UTF-8"?>
<!-- Created with Inkscape (http://www.inkscape.org/) -->
<svg width="1059.6" height="1983" version="1.1" viewBox="0 0 1059.6 1983" xmlns="http://www.w3.org/2000/svg" xmlns:cc="http://creativecommons.org/ns#" xmlns:dc="http://purl.org/dc/elements/1.1/" xmlns:rdf="http://www.w3.org/1999/02/22-rdf-syntax-ns#">
 <metadata>
  <rdf:RDF>
   <cc:Work rdf:about="">
    <dc:format>image/svg+xml</dc:format>
    <dc:type rdf:resource="http://purl.org/dc/dcmitype/StillImage"/>
    <dc:title/>
   </cc:Work>
  </rdf:RDF>
 </metadata>
 <path d="m47.774 1981.9c-19.95-2.3775-34.272-11.405-41.555-26.195l-4.4451-9.0267-0.84391-104.03c-1.3362-164.72-1.1962-900.89 0.18856-991.36 1.1206-73.218 2.1694-97.169 4.8094-109.84 1.6191-7.7698 47.699-56.156 166.5-174.83 105.18-105.07 147.66-145.34 166.41-157.75l5.4134-3.5834 86.766-0.364c47.721-0.2002 118.57 0.14407 157.43 0.76504 69.362 1.1082 70.814 1.1861 78.667 4.2206 16.366 6.3246 22.667 17.826 22.667 41.378 0 15.814-1.2143 19.214-10 28-6.7013 6.7013-11.332 9.0212-21.626 10.834-5.61 0.98815-54.149 1.6639-147.04 2.0472l-138.67 0.57214-283.52 283.21 0.66612 553.33c0.36636 304.33 1.0698 555.24 1.5631 557.58l0.89697 4.2423 12.195 0.7397c6.7075 0.4069 203.66 1.1011 437.67 1.5425l425.48 0.8028 0.8537-199.78c0.4695-109.88 1.2392-361.22 1.7104-558.54l0.8567-358.75-64.3-64.582c-61.984-62.256-100.78-99.927-104.02-101.01-3.5999-1.2-6.9259 5.2408-14.219 27.535-9.139 27.937-26.525 64.159-39.146 81.557-10.116 13.944-17.989 29.691-20.954 41.906-2.1877 9.0147-2.1632 9.6952 1.0084 28 4.2177 24.342 4.603 65.273 0.78532 83.427-10.248 48.735-30.37 85.534-63.698 116.5-70.422 65.423-168.98 73-250.56 19.264-16.325-10.752-44.377-38.59-54.967-54.548-15.082-22.726-24.446-44.825-30.56-72.125-2.7557-12.304-3.0687-16.988-2.9688-44.421 0.18098-49.692 4.6401-68.374 24.778-103.81 8.5295-15.008 10.836-18.212 24.766-34.406 15.104-17.559 27.511-28.893 35.586-32.508 3.7173-1.6642 10.163-5.6913 14.323-8.949s9.2602-6.5554 11.333-7.3284c40.385-15.057 47.761-16.376 96.773-17.304l35.671-0.6754 7.0915 3.4695c24.493 11.983 29.53 49.234 9.6355 71.255-9.339 10.337-13.497 11.463-46.068 12.476-33.566 1.0437-56.175 4.9103-65.843 11.26-17.938 11.781-51.859 52.064-56.573 67.182-2.4718 7.9264-6.9126 33.672-6.9147 40.088-4e-3 12.249 5.3565 33.514 12.546 49.772 10.953 24.766 34.583 47.912 58.594 57.395 13.494 5.3288 24.744 7.4125 44.872 8.3111 30.021 1.3403 45.452-3.2199 65.519-19.363 19.536-15.716 37.9-37.566 44.435-52.87 6.2768-14.7 8.337-31.219 5.5984-44.889l-0.97943-4.8889-15.31 7.2215c-32.418 15.291-69.522 24.777-96.559 24.685-25.325-0.0861-55.541-6.7303-76.973-16.925-15.831-7.5307-23.08-19.149-23.08-36.993 0-14.116 2.8589-21.186 12.561-31.065 11.42-11.628 13.93-12.155 42.772-8.9766 14.191 1.5636 31.392 2.4558 46 2.3858 21.394-0.10253 24.331-0.41373 35.333-3.7438 14.038-4.2488 25.581-10.255 38.958-20.271 33.535-25.11 73.063-70.045 75.73-86.089 1.1972-7.2033 3.3692-11.5 7.9794-15.784 4.6428-4.3148 6.6642-8.3708 8.504-17.063 0.82227-3.8849 2.7379-9.5849 4.257-12.667 5.889-11.947 10.884-26.031 14.021-39.529 1.7987-7.7408 4.7573-19.943 6.5746-27.116 9.4324-37.231 11.328-54.263 12.227-109.84 0.99858-61.74-1.4682-87-13.521-138.45-9.0578-38.668-14.076-52.803-30.259-85.234-24.771-49.64-49.439-83.376-75.151-102.77-9.7456-7.3516-32.889-19.325-44.653-23.101-23.96-7.6911-53.113-8.8546-75.333-3.0067-31.748 8.3552-73.912 39.145-96.926 70.78-5.7786 7.9431-32.026 56.015-37.492 68.667-12.746 29.499-24.751 71.319-30.998 107.97-3.5528 20.848-6.2437 31.036-9.6912 36.693-3.8926 6.3877-12.939 14.916-19.559 18.439-5.8718 3.125-8.177 3.548-19.333 3.548-11.163 0-13.473-0.42445-19.453-3.5746-8.1654-4.3008-14.546-11.266-18.645-20.352-5.8384-12.942-5.5322-24.758 1.5693-60.567 7.4245-37.437 16.786-71.28 22.093-79.866 1.4907-2.412 3.8392-8.9028 5.219-14.424 4.8662-19.473 36.856-83.382 49.99-99.87 20.679-25.96 65.622-71.316 81.219-81.966 10.816-7.3856 53.529-28.074 64.008-31.003 10.18-2.8456 12.918-2.9794 60-2.9329 32.892 0.03248 51.655 0.57277 56.3 1.6212 19.207 4.3352 61.337 25.15 78.366 38.717 18.814 14.99 65.667 64.29 77.587 81.64 10.432 15.183 40.909 73.105 42.942 81.61 0.8351 3.4938 4.2449 13.326 7.5774 21.85 12.583 32.182 28.926 108.17 31.934 148.46 0.52 6.9667 0.8788 36.619 0.7974 65.895l-0.148 53.228 5.1865 6.7719c13.038 17.023 45.907 52.849 96.737 105.44 81.997 84.835 116.12 121.46 124.63 133.75 5.1442 7.4323 6.727 23.792 8.087 83.582 1.5946 70.101 1.6105 837.14 0.02 965.33-2.0121 162.19-4.3974 180.55-24.414 187.88-9.378 3.4369-57.476 4.832-211.6 6.1377-172.23 1.4591-762.29 1.4071-774.67-0.068zm605.92-320.04c-3.2433-3.3853-4.6274-3.9524-8.0701-3.3065-3.6108 0.6773-4.7844 0.083-8.9547-4.5327-7.9371-8.7854-15.559-27.214-15.559-37.618 0-7.4702 20.778-31.995 68.926-81.355 60.767-62.297 85.741-89.738 85.741-94.213 0-4.5826-25.321-32.899-75.314-84.222-46.103-47.33-66.72-69.616-73.454-79.399-4.7083-6.8408-5.229-8.4202-5.1979-15.768 0.0652-15.412 12.547-34.64 27.408-42.222 8.3816-4.276 20.496-4.9868 27.994-1.6424 7.9062 3.5263 46.717 40.621 121.23 115.87 58.784 59.366 76.323 78.412 83.531 90.711 3.1313 5.3432 3.7258 7.8623 3.7142 15.739-0.026 17.504-5.2519 24.115-73.137 92.521-81.091 81.712-119.53 117.44-138.27 128.53-10.536 6.2329-15.283 6.4422-20.585 0.9078zm-278.2-5.3621c-19.897-16.608-58.063-53.336-115.8-111.43-60.011-60.386-71.95-73.179-80.961-86.748-4.6374-6.9834-4.9601-8.1306-4.9601-17.632 0-9.2508 0.41719-10.851 4.6509-17.842 7.4429-12.291 28.733-35.07 89.318-95.562 63.112-63.016 109.6-106.42 119.88-111.92 6.2085-3.3227 28.013 5.5914 38.822 15.871 5.7387 5.4578 6.5019 6.8997 7.8455 14.822 2.362 13.927 1.9 21.208-1.8197 28.672-7.0653 14.178-28.736 37.506-125.83 135.45l-29.97 30.232 53.99 55.101c77.757 79.357 99.378 103.01 105.51 115.42 2.5725 5.2064 2.6526 6.1976 1.024 12.667-3.9062 15.516-15.878 35.66-21.218 35.702-1.2074 0.013-5.9987 1.2095-10.647 2.6667-4.6487 1.4572-11.074 2.6494-14.278 2.6494-5.1764 0-6.9106-0.9052-15.548-8.1149z" fill="#6c757d" stroke-width="1.3333"/>
</svg>
