<?xml version="1.0" encoding="UTF-8" standalone="no"?>
<!-- Created with Inkscape (http://www.inkscape.org/) -->

<svg
   xmlns:dc="http://purl.org/dc/elements/1.1/"
   xmlns:cc="http://creativecommons.org/ns#"
   xmlns:rdf="http://www.w3.org/1999/02/22-rdf-syntax-ns#"
   xmlns:svg="http://www.w3.org/2000/svg"
   xmlns="http://www.w3.org/2000/svg"
   xmlns:sodipodi="http://sodipodi.sourceforge.net/DTD/sodipodi-0.dtd"
   xmlns:inkscape="http://www.inkscape.org/namespaces/inkscape"
   width="124.99995"
   height="233.92165"
   version="1.1"
   viewBox="0 0 124.99996 233.92165"
   id="svg977"
   sodipodi:docname="describe.svg"
   inkscape:version="0.92.3 (2405546, 2018-03-11)">
  <defs
     id="defs981" />
  <sodipodi:namedview
     pagecolor="#ffffff"
     bordercolor="#666666"
     borderopacity="1"
     objecttolerance="10"
     gridtolerance="10"
     guidetolerance="10"
     inkscape:pageopacity="0"
     inkscape:pageshadow="2"
     inkscape:window-width="1920"
     inkscape:window-height="1017"
     id="namedview979"
     showgrid="false"
     fit-margin-top="0"
     fit-margin-left="0"
     fit-margin-right="0"
     fit-margin-bottom="0"
     inkscape:zoom="0.4125063"
     inkscape:cx="529.79979"
     inkscape:cy="991.52401"
     inkscape:window-x="-8"
     inkscape:window-y="45"
     inkscape:window-maximized="1"
     inkscape:current-layer="svg977" />
  <metadata
     id="metadata973">
    <rdf:RDF>
      <cc:Work
         rdf:about="">
        <dc:format>image/svg+xml</dc:format>
        <dc:type
           rdf:resource="http://purl.org/dc/dcmitype/StillImage" />
        <dc:title></dc:title>
      </cc:Work>
    </rdf:RDF>
  </metadata>
  <path
     d="m 5.6356109,233.78934 c -2.353391,-0.2804 -4.042878,-1.3454 -4.90201314,-3.09 l -0.52436382,-1.0649 -0.0995514,-12.2718 c -0.15762412,-19.4311 -0.14110909,-106.273 0.0222434,-116.9453 0.13219098,-8.637102 0.2559121,-11.462502 0.56733828,-12.957202 0.19099626,-0.9165 5.62678678,-6.6244 19.64108278,-20.6237 12.407502,-12.3945 17.418632,-17.145 19.630465,-18.6089 l 0.638589,-0.4227 10.235305,-0.043 c 5.629382,-0.024 13.987046,0.017 18.571145,0.09 8.18225,0.1307 8.353535,0.1399 9.27991,0.4979 1.930606,0.746 2.6739,2.1028 2.6739,4.8811 0,1.8655 -0.143244,2.2666 -1.179644,3.303 -0.790516,0.7905 -1.336774,1.0642 -2.5511,1.278 -0.66178,0.1166 -6.387657,0.1963 -17.345494,0.2415 l -16.358132,0.068 -33.445283,33.4087 0.07858,65.273302 c 0.04322,35.9001 0.126198,65.4986 0.18439,65.7746 l 0.105811,0.5005 1.438576,0.087 c 0.791247,0.048 24.024642,0.1299 51.629506,0.182 l 50.191509,0.095 0.10071,-23.5669 c 0.0554,-12.962 0.14618,-42.6112 0.20177,-65.8879 l 0.10106,-42.319802 -7.58512,-7.6183 c -7.311902,-7.344 -11.888451,-11.7879 -12.270656,-11.9156 -0.42466,-0.1416 -0.81701,0.6182 -1.677337,3.2481 -1.078077,3.2956 -3.129007,7.5685 -4.617836,9.6208 -1.193329,1.6449 -2.122063,3.5025 -2.471828,4.9435 -0.258071,1.0634 -0.25518,1.1437 0.118956,3.303 0.497538,2.8715 0.54299,7.699902 0.09264,9.841402 -1.2089,5.749 -3.582581,10.09 -7.514101,13.7429 -8.307293,7.7175 -19.933634,8.6114 -29.557175,2.2724 -1.92577,-1.2683 -5.234909,-4.5522 -6.484152,-6.4347 -1.77914,-2.6809 -2.883759,-5.2878 -3.604994,-8.5082 -0.325075,-1.4514 -0.361998,-2.004 -0.350213,-5.240102 0.02135,-5.8619 0.547367,-8.0657 2.922923,-12.2459 1.006178,-1.7704 1.278263,-2.1484 2.921508,-4.0587 1.781735,-2.0713 3.24532,-3.4083 4.197883,-3.8348 0.43851,-0.1963 1.198873,-0.6713 1.689605,-1.0556 0.490733,-0.3843 1.092375,-0.7733 1.336892,-0.8645 4.763994,-1.7762 5.6341,-1.9318 11.415774,-2.0413 l 4.207911,-0.08 0.836545,0.4092 c 2.889303,1.4136 3.48349,5.8079 1.136646,8.4056 -1.10167,1.2194 -1.592166,1.3522 -5.434387,1.4717 -3.959595,0.1231 -6.626653,0.5793 -7.767134,1.3283 -2.116046,1.3897 -6.117518,6.1417 -6.673603,7.9251 -0.291584,0.935 -0.815441,3.9721 -0.815689,4.7289 -4.72e-4,1.445002 0.631877,3.953502 1.479982,5.871402 1.292065,2.9215 4.079565,5.6519 6.91201,6.7705 1.591812,0.6287 2.918912,0.8745 5.293301,0.9805 3.541411,0.1581 5.361721,-0.3799 7.728914,-2.2842 2.304553,-1.8539 4.470853,-4.4314 5.24175,-6.2368 0.74044,-1.734 0.98347,-3.6827 0.660413,-5.295302 l -0.115538,-0.5767 -1.806036,0.8519 c -3.824172,1.803802 -8.201125,2.922802 -11.390531,2.911902 -2.987449,-0.01 -6.551864,-0.7939 -9.080078,-1.9965 -1.867495,-0.888402 -2.72262,-2.258902 -2.72262,-4.363902 0,-1.6652 0.337249,-2.4992 1.481752,-3.6645 1.347154,-1.3717 1.643245,-1.4339 5.045576,-1.059 1.674033,0.1845 3.70314,0.2897 5.426365,0.2815 2.523732,-0.012 2.870193,-0.049 4.168038,-0.4416 1.655985,-0.5013 3.017649,-1.2098 4.59566,-2.3913 3.955938,-2.9621 8.618837,-8.2628 8.933448,-10.1554 0.141227,-0.8498 0.397446,-1.3566 0.941286,-1.862 0.547685,-0.509 0.786139,-0.9875 1.00317,-2.0128 0.097,-0.4583 0.322975,-1.1307 0.502174,-1.4943 0.694693,-1.4093 1.283926,-3.0707 1.65398,-4.663 0.212183,-0.9131 0.561192,-2.3526 0.775569,-3.1987 1.112688,-4.392 1.336302,-6.4011 1.442352,-12.9572 0.117797,-7.2832 -0.173196,-10.2629 -1.594998,-16.3322 -1.068498,-4.5615 -1.660468,-6.2289 -3.569486,-10.0546 -2.922098,-5.8558 -5.832045,-9.8354 -8.865148,-12.1232 -1.149634,-0.8672 -3.879733,-2.2797 -5.267467,-2.7251 -2.826428,-0.9073 -6.265446,-1.0445 -8.886616,-0.3547 -3.745136,0.9856 -8.718989,4.6177 -11.433824,8.3495 -0.681669,0.937 -3.777929,6.6078 -4.422723,8.1003 -1.503575,3.4798 -2.919738,8.4131 -3.656662,12.7366 -0.419105,2.4593 -0.736535,3.6612 -1.143218,4.3285 -0.459188,0.7535 -1.526342,1.7595 -2.307266,2.1751 -0.692664,0.3687 -0.964596,0.4186 -2.280607,0.4186 -1.316838,0 -1.589335,-0.05 -2.294763,-0.4217 -0.963227,-0.5073 -1.715911,-1.329 -2.199447,-2.4008 -0.688724,-1.5267 -0.652603,-2.9206 0.185121,-7.1448 0.875827,-4.4162 1.980152,-8.4085 2.606189,-9.4213 0.17585,-0.2845 0.452889,-1.0502 0.615657,-1.7015 0.574038,-2.2972 4.347698,-9.8361 5.897043,-11.7811 2.439387,-3.0624 7.741064,-8.4128 9.580955,-9.6691 1.275904,-0.8713 6.31452,-3.31179995 7.55067,-3.65729995 1.200878,-0.3357 1.523865,-0.3514 7.077867,-0.34600000191 3.880087,0 6.093454,0.0680000019 6.641399,0.19130000191 2.265744,0.5114 7.235586,2.96679995 9.244403,4.56719995 2.219384,1.7683 7.746372,7.584 9.152509,9.6306 1.230605,1.7911 4.825808,8.6238 5.06563,9.6271 0.09851,0.4122 0.500747,1.572 0.893863,2.5775 1.484347,3.7964 3.41224,12.7603 3.767078,17.513 0.06134,0.8219 0.103667,4.3198 0.09406,7.7733 l -0.01746,6.279 0.611822,0.7989 c 1.538021,2.0081 5.415394,6.2343 11.411534,12.4381 9.67273,10.0076 13.69803,14.328 14.70191,15.7778 0.60683,0.8767 0.79354,2.8066 0.95397,9.8597 0.18811,8.269402 0.18999,98.752802 0.002,113.874602 -0.23735,19.1327 -0.51873,21.2985 -2.87998,22.1632 -1.10627,0.4054 -6.78013,0.57 -24.961281,0.724 -20.317019,0.1721 -89.9231283,0.166 -91.3835283,-0.01 z m 71.4770251,-37.7533 c -0.382594,-0.3994 -0.545868,-0.4663 -0.951985,-0.3901 -0.425946,0.08 -0.564389,0.01 -1.056336,-0.5347 -0.936296,-1.0363 -1.835409,-3.2102 -1.835409,-4.4375 0,-0.8813 2.451066,-3.7743 8.130818,-9.597 7.168347,-7.3489 10.114391,-10.5859 10.114391,-11.1138 0,-0.5406 -2.986978,-3.8809 -8.884375,-9.9352 -5.438516,-5.5833 -7.870589,-8.2123 -8.664962,-9.3663 -0.555412,-0.807 -0.616836,-0.9933 -0.613167,-1.8601 0.0077,-1.818 1.4801,-4.0862 3.23317,-4.9807 0.988731,-0.5044 2.417799,-0.5882 3.302297,-0.1937 0.932651,0.416 5.510946,4.7918 14.300831,13.6685 6.934421,7.0031 9.003401,9.2499 9.853691,10.7007 0.36938,0.6303 0.43951,0.9275 0.43814,1.8567 -0.003,2.0648 -0.61954,2.8447 -8.627564,10.9141 -9.565856,9.6392 -14.100292,13.8538 -16.310946,15.162 -1.242874,0.7353 -1.802851,0.76 -2.428299,0.1071 z m -32.817712,-0.6326 c -2.347139,-1.9591 -6.849371,-6.2917 -13.660285,-13.1447 -7.079165,-7.1234 -8.487543,-8.6326 -9.550521,-10.2332 -0.547048,-0.8238 -0.585115,-0.9591 -0.585115,-2.08 0,-1.0912 0.04921,-1.28 0.548641,-2.1047 0.877998,-1.4499 3.389473,-4.137 10.53635,-11.2729 7.444973,-7.4337 12.928904,-12.5538 14.141579,-13.2026 0.732382,-0.3919 3.304538,0.6596 4.579616,1.8722 0.676963,0.6439 0.766993,0.8139 0.92549,1.7485 0.278632,1.6429 0.224133,2.5018 -0.21466,3.3823 -0.833454,1.6725 -3.389826,4.4243 -14.843468,15.9783 l -3.535394,3.5663 6.368901,6.4999 c 9.172562,9.3613 11.723072,12.1515 12.44643,13.6155 0.303464,0.6141 0.312913,0.7311 0.120796,1.4942 -0.460793,1.8304 -1.87304,4.2066 -2.50297,4.2116 -0.142431,0 -0.707634,0.1427 -1.255968,0.3146 -0.548381,0.1719 -1.306338,0.3125 -1.684296,0.3125 -0.610632,0 -0.815206,-0.1068 -1.834112,-0.9573 z"
     id="path975"
     inkscape:connector-curvature="0"
     style="fill:#6c757d;stroke-width:0.15728201" />
</svg>
