<?xml version="1.0" encoding="UTF-8"?>
<!-- Created with Inkscape (http://www.inkscape.org/) -->
<svg width="190.55" height="228.61" version="1.1" viewBox="0 0 190.55 228.61" xmlns="http://www.w3.org/2000/svg" xmlns:cc="http://creativecommons.org/ns#" xmlns:dc="http://purl.org/dc/elements/1.1/" xmlns:rdf="http://www.w3.org/1999/02/22-rdf-syntax-ns#">
 <metadata>
  <rdf:RDF>
   <cc:Work rdf:about="">
    <dc:format>image/svg+xml</dc:format>
    <dc:type rdf:resource="http://purl.org/dc/dcmitype/StillImage"/>
    <dc:title/>
   </cc:Work>
  </rdf:RDF>
 </metadata>
 <path d="m23.791 228.06c-4.2853-2.3263-22.526-16.029-23.388-17.57-0.56837-1.0156-0.53266-2.354 0.09405-3.525 1.8991-3.5486 78.703-96.405 80.221-96.988 1.7267-0.66258 12.834 6.3929 15.054 9.5626 1.1011 1.5721 1.1907 2.5745 0.372 4.1657-3.2114 6.2418-67.366 103.81-68.743 104.55-0.98838 0.52897-2.4166 0.45125-3.6096-0.19641zm95.057-104.83c-23.581-3.5836-44.091-20.016-51.58-41.325-7.8931-22.457-2.2703-45.302 15.535-63.119 12.808-12.816 27.115-18.787 45.014-18.787 17.612 0 32.224 6.0034 44.52 18.291 12.464 12.455 18.21 26.184 18.21 43.515 0 17.33-5.7453 31.06-18.21 43.515-14.072 14.062-34.282 20.829-53.49 17.909zm4.0703-10.471c0.35154-1.4006 0.35546-2.8303 9e-3 -3.177-0.75886-0.75886-3.5331 2.7098-3.578 4.4736-0.0596 2.3439 2.9279 1.2586 3.5692-1.2966zm10.399-3.5604c0-4.8591-0.2896-5.9959-1.4172-5.5631-0.77948 0.29911-1.6592-0.0866-1.9548-0.85708-0.62778-1.636 4.846-5.916 6.3652-4.977 0.55375 0.34224 1.0068 4.1957 1.0068 8.5632 0 8.8545 0.0524 8.9044 7.134 6.7827 3.7351-1.1191 3.866-1.3089 3.866-5.607 0-3.5436-0.30519-4.3316-1.5-3.8731-2.5459 0.97695-1.7432-2.9723 0.96482-4.7466 3.9566-2.5924 4.5352-2.033 4.5352 4.385 0 3.3 0.20383 6 0.45295 6 2.5929 0 5.7035-2.8673 6.5596-6.0465 1.2413-4.6099 3.0741-6.2068 6.636-5.782 2.3012 0.27445 3.3767-0.4934 6.5363-4.6666 2.08-2.7473 4.7403-7.3566 5.9118-10.243l2.13-5.2479-2.9891-2.7922c-3.4602-3.2323-4.8069-8.9388-3.7589-15.928 0.70677-4.7131 4.6384-9.9578 6.5698-8.7641 1.5625 0.96567 0.13043-4.1205-3.1084-11.04-2.8396-6.0664-9.8214-15.053-9.8985-12.74-0.0229 0.6875-0.94163 1.25-2.0416 1.25-1.6115 0-2-0.66667-2-3.4319 0-2.664-0.66442-3.905-2.9693-5.5463l-2.9693-2.1144-0.61195 2.7963c-1.6771 7.6633-4.6302 10.592-8.9923 8.9182-2.3228-0.89136-4.4571-6.9199-4.4571-12.59 0-2.7677-0.45-5.0321-1-5.0321-0.56193 0-1 2.7884-1 6.3651 0 7.7219-2.5329 11.942-6.866 11.44-3.9793-0.46112-6.2856-5.7396-5.9235-13.557l0.28955-6.2521-6.5 0.0042v9.5c0 8.8333-0.14035 9.5-2 9.5-1.8518 0-2-0.66667-2-9 0-8.6712-0.0822-8.9994-2.25-8.9847-3.7681 0.02564-4.4845 1.2165-4.9194 8.1781-0.29245 4.6809-0.97777 7.3117-2.2794 8.75-3.849 4.2531-9.1161 1.513-10.225-5.3194-0.76349-4.7048-1.9122-4.6161-2.6834 0.20726-0.8123 5.0798-3.6479 7.6177-7.6232 6.8227-2.7399-0.54798-3.3706-0.14806-6.4968 4.1196-1.9043 2.5996-4.5499 7.4174-5.8793 10.706l-2.417 5.9798 2.9116 1.7706c3.9301 2.39 5.1041 5.9609 4.6564 14.163-0.34826 6.3808-0.6233 7.0999-3.6972 9.6661l-3.3209 2.7724 2.6059 5.6919c1.4332 3.1306 4.1769 7.8322 6.0971 10.448 2.9197 3.9774 3.9087 4.6763 6.0409 4.2687 3.1334-0.59898 6.1281 1.8828 6.9862 5.7893 0.5836 2.6571 4.1673 5.9698 6.4582 5.9698 0.56935 0 1.0352-1.3697 1.0352-3.0438 0-2.2781-0.41412-2.9699-1.6463-2.75-0.90544 0.16161-1.8275-0.22232-2.049-0.85317-0.50906-1.4498 5.3349-5.6937 6.6884-4.8572 0.55375 0.34224 1.0068 3.6932 1.0068 7.4466 0 6.2318 0.19537 6.8767 2.25 7.4273 1.2375 0.33164 2.5318 0.60913 2.8762 0.61664 0.34439 8e-3 0.82798-2.4199 1.0746-5.3942 0.81155-9.7861 6.1645-13.757 10.727-7.9573 1.6037 2.0388 2.0726 4.0748 2.0726 9v6.3651h7zm-45.264-33.667c-2.891-0.61918-4.7364-5.5774-4.7364-12.726 0-10.136 3.1614-14.559 8.7002-12.173 2.8009 1.207 4.2998 5.5135 4.2998 12.354 0 9.1496-2.9816 13.676-8.2636 12.544zm4.0826-9.8306-0.31903-3.8953-2.349 3.7782c-1.934 3.1106-2.1258 4.0472-1.0859 5.3002 2.038 2.4556 4.1417-0.44899 3.7539-5.1832zm-1.9989-5.815c1.6412-2.7817 1.7898-3.7314 0.79616-5.0903-1.6203-2.2158-3.1242-0.3871-3.9147 4.76-0.71719 4.6701 0.48295 4.7972 3.1185 0.33025zm26.389 13.923c-2.5584-2.2006-2.7093-2.8137-2.7093-11.004s0.15095-8.803 2.7093-11.004c5.5687-4.79 9.7907-0.04501 9.7907 11.004 0 11.049-4.222 15.794-9.7907 11.004zm6.3118-7.6286c0.9136-5.4075 0.14676-5.7518-2.8824-1.294-1.984 2.9197-2.3161 4.1532-1.5192 5.6423 1.4641 2.7356 3.5535 0.67151 4.4016-4.3483zm-2.5037-6.4033c1.8191-2.9433 1.9657-3.7872 0.88417-5.0903-1.1678-1.4071-1.4256-1.3854-2.599 0.21937-1.1787 1.612-1.8932 8.3992-0.88417 8.3992 0.23014 0 1.3997-1.5877 2.599-3.5282zm11.245 14.076c-2.6218-2.2573-2.7628-2.8213-2.7628-11.05 0-8.1882 0.15098-8.8013 2.7093-11.001 5.6207-4.8337 9.8003-0.04329 9.776 11.204-0.0164 7.583-1.3894 11.191-4.7225 12.408-1.6919 0.61815-2.9106 0.23759-5-1.5613zm6.312-7.0942c1.0322-5.5023-0.0392-6.2507-2.787-1.9469-1.9049 2.9837-2.3093 4.4526-1.599 5.8082 1.3165 2.5127 3.5609 0.5368 4.386-3.8614zm-1.688-12.09c-1.1474-1.3826-1.4179-1.3578-2.5842 0.23724-0.71643 0.97979-1.2984 3.6079-1.2932 5.8403l9e-3 4.0589 2.5747-4.2961c2.1416-3.5734 2.3591-4.5559 1.2932-5.8403zm26.662 20.404c-5.9505-3.3301-5.8643-21.431 0.117-24.568 2.4294-1.2743 5.8883 0.11279 7.4682 2.9949 1.9021 3.4699 1.6748 15.924-0.34694 19.009-1.9256 2.9389-4.7689 3.9462-7.2383 2.5642zm4.4764-5.8133c0.6023-1.1254 0.95563-3.4879 0.78518-5.25l-0.30991-3.2038-2.25 3.618c-1.2375 1.9899-2.25 4.3524-2.25 5.25 0 2.3081 2.7175 2.0284 4.0247-0.41424zm-0.41196-13.521c-0.3025-0.7883-1.1866-1.4333-1.9648-1.4333-1.5731 0-2.6136 2.9554-2.6344 7.4821l-0.0137 2.9821 2.5814-3.7989c1.4198-2.0894 2.3339-4.4438 2.0314-5.2321zm-63.613 10.067c0-7.6049-0.28746-9.5-1.441-9.5-4.1668 0-0.52537-5.8866 3.691-5.9667 1.5751-0.02994 1.75 1.216 1.75 12.467 0 11.833-0.10667 12.5-2 12.5-1.8596 0-2-0.66667-2-9.5zm45.667 8.8333c-0.36667-0.36667-0.66667-4.6417-0.66667-9.5 0-7.1852-0.27987-8.8333-1.5-8.8333-2.2429 0-1.8087-2.6704 0.72251-4.4433 4.4618-3.1251 4.7775-2.4019 4.7775 10.943 0 9.75-0.29333 12.5-1.3333 12.5-0.73334 0-1.6333-0.3-2-0.66667zm-27.281 28.23c-0.77631-2.023-2.9998-2.0122-3.779 0.0184-0.33385 0.86995-0.60699 3.2244-0.60699 5.2321v3.6504l2.493-3.6687c1.3822-2.0341 2.2256-4.3653 1.893-5.2321zm-44.386-37.255c0-1.8199-0.18081-3.3089-0.4018-3.3089-0.22099 0-1.3136 1.4401-2.428 3.2002-1.5801 2.4955-1.7929 3.6362-0.96657 5.1802 1.031 1.9264 1.0967 1.9294 2.428 0.10865 0.7526-1.0292 1.3684-3.3603 1.3684-5.1802zm104.78 0.6825 0.28439-4.4914-2.0278 3c-2.5494 3.7717-2.6876 6.7693-0.29098 6.3147 1.303-0.24717 1.8226-1.479 2.0344-4.8233zm-0.17162-10.558c-0.3025-0.7883-1.1866-1.4333-1.9648-1.4333-1.5731 0-2.6136 2.9554-2.6344 7.4821l-0.0137 2.9821 2.5814-3.7989c1.4198-2.0894 2.3339-4.4438 2.0314-5.2321zm-105.79-0.74785c-1.548-2.9241-3.8212-0.15273-3.8212 4.6588v4.0993l2.3909-3.4718c1.7927-2.6032 2.1505-3.9258 1.4303-5.2863zm15.521-32.135c0.37166-0.96852 0.0755-1.2647-0.89301-0.89301-1.5817 0.60697-1.9937 2.3421-0.55606 2.3421 0.49116 0 1.1432-0.65208 1.4491-1.4491zm15.016-0.30093c1.3221-4.6958 1.7123-8.25 0.90564-8.25-1.3044 0-5.0937 7.2792-4.5549 8.75 0.6766 1.8469 3.0812 1.5174 3.6492-0.5zm30.046 0.90462c1.0353-1.6751 1.8312-9.1544 0.97337-9.1469-1.2947 0.01136-5.1653 7.2855-4.6518 8.7423 0.49986 1.4181 2.8896 1.6809 3.6784 0.40462zm15.62-1.7197c0.53639-1.4108 0.95907-3.7733 0.93929-5.25l-0.036-2.6849-2.4591 3c-2.7771 3.388-3.2948 7.5-0.94425 7.5 0.83861 0 1.9636-1.1543 2.5-2.5651zm-48.643-6.9868c0.34149-0.88992 0.17385-1.2913-0.39301-0.94098-0.5437 0.33602-0.98855 1.0344-0.98855 1.5519 0 1.4384 0.71677 1.1215 1.3816-0.61096zm31.507-1.9842c1.727-2.927 1.8384-3.6313 0.64667-4.0886-2.3402-0.898-3.5355 0.51653-3.5355 4.1838 0 1.8925 0.18055 3.441 0.40122 3.441 0.22068 0 1.3401-1.5913 2.4876-3.5361zm14.058 1.6361c0.76981-1.4384 0.65688-2.0382-0.46481-2.4686-1.0623-0.40765-1.4817 0.13012-1.4817 1.9 0 2.9596 0.57671 3.128 1.9465 0.56858z" fill="#6c757d"/>
</svg>
