<?xml version="1.0" encoding="UTF-8" standalone="no"?>
<!-- Created with Inkscape (http://www.inkscape.org/) -->

<svg
   xmlns:dc="http://purl.org/dc/elements/1.1/"
   xmlns:cc="http://creativecommons.org/ns#"
   xmlns:rdf="http://www.w3.org/1999/02/22-rdf-syntax-ns#"
   xmlns:svg="http://www.w3.org/2000/svg"
   xmlns="http://www.w3.org/2000/svg"
   xmlns:sodipodi="http://sodipodi.sourceforge.net/DTD/sodipodi-0.dtd"
   xmlns:inkscape="http://www.inkscape.org/namespaces/inkscape"
   version="1.1"
   id="svg2638"
   width="960"
   height="540"
   viewBox="0 0 960 540"
   sodipodi:docname="github_circle.svg"
   inkscape:version="0.92.3 (2405546, 2018-03-11)">
  <metadata
     id="metadata2644">
    <rdf:RDF>
      <cc:Work
         rdf:about="">
        <dc:format>image/svg+xml</dc:format>
        <dc:type
           rdf:resource="http://purl.org/dc/dcmitype/StillImage" />
        <dc:title></dc:title>
      </cc:Work>
    </rdf:RDF>
  </metadata>
  <defs
     id="defs2642" />
  <sodipodi:namedview
     pagecolor="#666666"
     bordercolor="#666666"
     borderopacity="1"
     objecttolerance="10"
     gridtolerance="10"
     guidetolerance="10"
     inkscape:pageopacity="0"
     inkscape:pageshadow="2"
     inkscape:window-width="1920"
     inkscape:window-height="1080"
     id="namedview2640"
     showgrid="false"
     inkscape:zoom="1.5052083"
     inkscape:cx="480"
     inkscape:cy="270"
     inkscape:window-x="0"
     inkscape:window-y="53"
     inkscape:window-maximized="1"
     inkscape:current-layer="svg2638" />
  <path
     style="fill:#ffffff;fill-opacity:1"
     d="M 399.5,480.1712 C 370.79408,469.04966 343.92211,451.73585 322.40759,430.5 286.71454,395.26928 264.58254,350.12947 257.93325,299 c -1.75765,-13.5154 -1.49818,-41.17315 0.51128,-54.5 3.46109,-22.95406 10.10984,-45.42591 18.91583,-63.93293 C 309.29582,113.45022 371.73716,67.094534 446,55.371044 c 17.42419,-2.750667 52.02852,-2.5208 69.5,0.461669 15.91443,2.716673 28.26852,5.934785 41.18203,10.727492 C 625.44572,92.081084 677.26428,149.05126 695.33722,219 c 17.42633,67.44614 1.6877,139.08533 -42.6003,193.90829 -23.49377,29.08233 -58.60299,54.26141 -94.21362,67.56664 -11.54671,4.31421 -16.16977,4.33204 -20.42588,0.0788 l -2.59742,-2.5957 -0.55464,-40.72901 c -0.52789,-38.76522 -0.66071,-41.01447 -2.75466,-46.64911 -2.49994,-6.72715 -6.33283,-13.62305 -8.63306,-15.53208 -3.12037,-2.58967 -1.59514,-3.60057 7.24995,-4.80521 21.86292,-2.97756 44.12908,-11.68601 57.696,-22.56531 18.29175,-14.66813 29.06708,-36.76246 32.55333,-66.74911 3.36072,-28.90694 -2.33578,-53.21276 -16.84089,-71.85665 l -5.00139,-6.42846 1.37338,-3.89257 c 4.1692,-11.81677 3.69157,-31.4311 -1.13764,-46.71824 L 596.91299,144 h -6.06215 c -11.53244,0 -27.70756,5.88067 -45.39609,16.50431 l -10.38509,6.23724 -7.71187,-1.83734 c -29.91391,-7.12696 -65.80167,-7.12696 -95.71558,0 l -7.71187,1.83734 -10.38509,-6.23724 C 395.85672,149.88067 379.6816,144 368.14916,144 h -6.06215 l -2.5153,7.96233 c -5.05362,15.99754 -5.49928,34.48859 -1.12972,46.87325 l 1.37612,3.90034 -4.47149,5.38204 c -5.45306,6.56348 -13.52544,22.88801 -16.01273,32.38204 -2.7032,10.31817 -2.49642,40.22322 0.36993,53.5 7.15647,33.14845 24.32802,54.75889 53.29618,67.07337 8.73826,3.71467 26.88233,8.486 36.08708,9.48979 3.52711,0.38463 6.77295,0.90576 7.21299,1.15805 0.44004,0.25229 -0.28362,1.88073 -1.60812,3.61875 -3.83701,5.03493 -7.64375,13.23394 -9.02247,19.4327 -1.13353,5.09639 -1.68096,5.92907 -4.96918,7.55851 -6.79508,3.36722 -19.03072,5.16357 -27.17713,3.98996 -14.35539,-2.0681 -24.20504,-9.20741 -35.30385,-25.58926 -5.96178,-8.7996 -13.99306,-15.38107 -22.78207,-18.66946 -10.57495,-3.9566 -21.7767,-1.858 -19.9979,3.74651 0.38138,1.20163 3.57794,4.24312 7.10346,6.75888 10.75362,7.67362 17.55973,16.01503 24.27672,29.75297 7.0896,14.50004 12.88721,20.9275 23.68047,26.25312 12.62586,6.22986 27.70575,7.71756 48.80419,4.81477 l 4.80419,-0.66098 -0.30419,22.61546 -0.30419,22.61545 -2.6323,2.63028 c -4.28404,4.28074 -9.50395,4.17871 -21.3677,-0.41767 z m -1.96309,-64.77715 C 395.37933,413.23647 397.22026,411 401.15383,411 c 3.2959,0 4.71134,2.25261 2.8356,4.51273 -1.61356,1.94423 -4.44163,1.89222 -6.45252,-0.11868 z m 17.6147,-1.27919 c -2.48854,-1.57705 -0.89084,-4.59016 2.61345,-4.92873 3.97346,-0.3839 5.61967,2.32816 2.70629,4.45848 -2.13349,1.56004 -3.42056,1.67382 -5.31974,0.47025 z m -35.53769,-1.6438 C 377.62045,410.47759 378.61897,408 381.41586,408 c 3.15984,0 6.03795,2.37501 5.278,4.35539 -0.79453,2.07052 -5.05548,2.14013 -7.07994,0.11567 z M 365,404 c -2.31989,-2.31989 -2.48444,-3.36474 -0.75,-4.76239 1.74376,-1.40516 5.43286,0.18781 6.22661,2.68869 1.33483,4.20567 -2.05942,5.49089 -5.47661,2.0737 z m -10.42857,-12.57143 c -1.99037,-1.99037 -2.01733,-4.32023 -0.0587,-5.07183 2.11947,-0.81332 4.48727,1.43757 4.48727,4.2657 0,2.74996 -2.1021,3.13261 -4.42857,0.80613 z m -9.51523,-13.32356 c -1.49148,-2.78686 1.11427,-4.79169 3.33785,-2.5681 0.88327,0.88327 1.60595,2.2488 1.60595,3.03452 0,2.09687 -3.76192,1.74195 -4.9438,-0.46642 z m -9.04638,-8.59318 c -1.00074,-1.20582 -0.92669,-1.6065 0.39029,-2.11187 1.8288,-0.70178 4.87353,1.34827 4.02986,2.71335 -0.83852,1.35676 -3.04403,1.05665 -4.42015,-0.60148 z"
     id="path2648"
     inkscape:connector-curvature="0" />
</svg>
