<?xml version="1.0" encoding="utf-8"?>
<!-- Generator: Adobe Illustrator 17.0.0, SVG Export Plug-In . SVG Version: 6.00 Build 0)  -->
<!DOCTYPE svg PUBLIC "-//W3C//DTD SVG 1.1//EN" "http://www.w3.org/Graphics/SVG/1.1/DTD/svg11.dtd">
<svg version="1.1" id="Layer_1" xmlns="http://www.w3.org/2000/svg" xmlns:xlink="http://www.w3.org/1999/xlink" x="0px" y="0px"
	 width="325px" height="70px" viewBox="0 0 325 70" style="enable-background:new 0 0 325 70;" xml:space="preserve" shape-rendering="geometricPrecision">
<style type="text/css">
	.st0{fill:#217EC0;}
	.st1{fill:#4B7838;}
	.st2{fill:#0BA7C8;}
	.st3{fill:#92A73B;}
	.st4{fill:#315B2C;}
	.st5{fill:#68C8D2;}
	.st6{fill:#8A5D3B;}
	.st7{fill:#BFCE38;}
	.st8{fill:#FFDD15;}
	.st9{fill:#FFFFFF;}
	.st10{fill:#3A3A3C;}
</style>
<g>
	<g>
		<g>
			<g>
				<g>
					<g>
						<g>
							<path class="st0" d="M46.039,36.454c-0.322,0.182-0.952-1.204-1.277-1.013C29.57,44.348,6.668,46.155,0,46.522v3.618
								c10.122,1.101,22.367,0.416,31.371-1.466c15.654-3.275,34.028-4.29,48.601,0.672v-4.743
								C72.748,43.3,53.203,39.636,46.039,36.454z"/>
						</g>
						<g>
							<path class="st1" d="M47.415,34.415c6.291,2.727,26.589,6.519,32.558,7.691V29.48C76.334,28.003,56.344,30.111,47.415,34.415
								z"/>
						</g>
						<g>
							<path class="st2" d="M32.263,51.936c-6.5,1.358-12.016,1.781-16.364,1.781c-1.849,0-14.485-0.077-15.9-0.191v4.257
								l79.973-0.204v-4.601C65.73,47.784,47.684,48.713,32.263,51.936z"/>
						</g>
						<g>
							<path class="st3" d="M0,24.141v9.358c7.28-3.21,21.351-9.025,32.895-5.036c1.631,0.564,3.974,1.482,7.229,2.956
								c0.952,0.431,4.952,1.79,6.008,2.264c9.243-4.933,28.209-6.883,33.841-5.31v-4.232H0z"/>
						</g>
						<g>
							<path class="st4" d="M40.079,34.349c-3.05-1.384-5.576-2.598-7.061-3.113C21.804,27.361,8.106,32.619,0,36.546v8.764
								c10.64-0.549,26.597-1.989,42.738-9.817C42.48,35.374,40.328,34.46,40.079,34.349z"/>
						</g>
						<g>
							<polygon class="st5" points="0,61.14 0,63.356 79.973,63.356 79.973,60.934 							"/>
						</g>
						<g>
							<rect class="st6" width="79.973" height="3.345"/>
						</g>
						<g>
							<rect y="66.655" class="st6" width="79.973" height="3.345"/>
						</g>
						<g>
							<rect y="15.42" class="st7" width="79.973" height="5.367"/>
						</g>
						<g>
							<rect y="6.699" class="st8" width="79.973" height="5.367"/>
						</g>
					</g>
				</g>
				<circle class="st9" cx="45.398" cy="34.396" r="2.522"/>
				<circle class="st9" cx="36.961" cy="38.651" r="2.522"/>
				<circle class="st9" cx="27.056" cy="41.765" r="2.522"/>
				<circle class="st9" cx="15.866" cy="44.327" r="2.522"/>
				<circle class="st9" cx="5.022" cy="45.554" r="2.522"/>
				<circle class="st9" cx="56.035" cy="30.411" r="2.522"/>
				<circle class="st9" cx="66.125" cy="28.763" r="2.522"/>
				<circle class="st9" cx="76.212" cy="28.456" r="2.522"/>
			</g>
		</g>
		<g>
			<path class="st10" d="M101.667,52.443h-12.52V24.756h6.141v22.703h6.379V52.443z"/>
			<path class="st10" d="M114.503,52.443h-6.141V29.7h-5.308v-4.944h16.798V29.7h-5.349V52.443z"/>
			<path class="st10" d="M122.903,52.443V24.756h14.937V29.7h-8.796v6.25h7.607v4.944h-7.607v6.565h8.796v4.984H122.903z"/>
			<path class="st10" d="M148.377,24.361c7.052,0,10.579,3.19,10.579,9.572c0,3.982-1.348,6.684-4.042,8.108l4.834,10.402h-6.696
				l-4.239-9.215c-0.529,0-0.819-0.027-0.872-0.079v9.295h-6.141V25.231C143.781,24.651,145.974,24.361,148.377,24.361z
				 M147.942,29.503v8.622c0.263,0.054,0.594,0.079,0.99,0.079c2.536,0,3.803-1.45,3.803-4.351c0-2.953-1.267-4.43-3.803-4.43
				C148.536,29.423,148.205,29.45,147.942,29.503z"/>
			<path class="st10" d="M190.174,52.839l-17.116-22.617v22.221h-2.099V24.361l16.924,22.363l0.191,0.253V24.756h2.1V52.839z"/>
			<path class="st10" d="M196.275,52.443V24.756h11.608v1.82h-9.39v10.916h8.122v1.82h-8.122v11.272h9.39v1.859H196.275z"/>
			<path class="st10" d="M218.104,52.443h-2.218V26.576h-5.666v-1.82h13.59v1.82h-5.706V52.443z"/>
			<path class="st10" d="M247.66,52.839l-7.043-22.037l-7.063,22.037l-8.596-28.083h2.283l6.553,21.557l6.893-21.952l6.96,21.863
				l6.471-21.468h2.074L247.66,52.839z"/>
			<path class="st10" d="M262.041,48.843c-2.535-2.663-3.803-6.077-3.803-10.243s1.268-7.581,3.803-10.244s5.877-3.995,10.024-3.995
				c4.172,0,7.527,1.325,10.063,3.974c2.535,2.65,3.803,6.072,3.803,10.265c0,4.192-1.268,7.613-3.803,10.264
				c-2.535,2.65-5.891,3.975-10.063,3.975C267.918,52.839,264.577,51.507,262.041,48.843z M263.765,29.779
				c-2.127,2.294-3.19,5.235-3.19,8.821s1.063,6.526,3.19,8.819c2.126,2.294,4.892,3.441,8.3,3.441c3.433,0,6.213-1.147,8.34-3.441
				c2.125-2.294,3.189-5.234,3.189-8.819s-1.064-6.527-3.189-8.821c-2.127-2.294-4.907-3.441-8.34-3.441
				C268.657,26.339,265.891,27.486,263.765,29.779z"/>
			<path class="st10" d="M295.321,24.361c2.932,0,5.11,0.738,6.536,2.215c1.426,1.477,2.14,3.534,2.14,6.17
				c0,4.246-1.743,6.882-5.23,7.911l6.458,11.786h-2.417l-6.262-11.431c-0.213,0.027-0.546,0.04-1,0.04
				c-0.853,0-1.814-0.065-2.88-0.197v11.589h-2.218V24.954C292.165,24.559,293.789,24.361,295.321,24.361z M292.667,26.496v12.42
				c0.872,0.185,1.809,0.277,2.813,0.277c2.086,0,3.645-0.568,4.675-1.702c1.031-1.133,1.545-2.716,1.545-4.746
				c0-2.057-0.515-3.652-1.545-4.786c-1.03-1.133-2.589-1.701-4.675-1.701C294.502,26.259,293.564,26.339,292.667,26.496z"/>
			<path class="st10" d="M311.128,52.443h-2.218V24.756h2.218v12.956l10.499-12.956h2.535l-10.579,13.053l11.41,14.634h-2.575
				l-11.291-14.481V52.443z"/>
		</g>
		<g>
			<path class="st10" d="M91.106,57.926v8.091h2.059v1.844h-4.026v-9.935H91.106z"/>
			<path class="st10" d="M102.921,62.893c0,3.729-1.742,5.125-3.497,5.125c-1.756,0-3.498-1.396-3.498-5.125
				c0-3.729,1.742-5.125,3.498-5.125C101.179,57.768,102.921,59.164,102.921,62.893z M99.424,66.201
				c1.307,0,1.399-2.517,1.399-3.308c0-0.883-0.092-3.308-1.399-3.308s-1.399,2.425-1.399,3.308
				C98.025,63.684,98.117,66.201,99.424,66.201z"/>
			<path class="st10" d="M108.075,57.926l2.455,5.996l0.027-0.027c-0.119-0.474-0.158-0.988-0.158-1.502v-4.467h1.967v9.935h-1.861
				l-2.429-5.996l-0.026,0.027l0.092,1.001l0.013,0.409v4.559h-1.967v-9.935H108.075z"/>
			<path class="st10" d="M122.361,62.327v0.777c0,2.108-0.515,4.915-3.194,4.915s-3.551-2.872-3.551-5.073
				c0-2.293,0.739-5.178,3.551-5.178c1.518,0,2.507,0.948,2.93,2.358l-1.913,0.738c-0.092-0.501-0.251-1.279-1.004-1.279
				c-1.333-0.078-1.465,2.372-1.465,3.308c0,1.028,0.066,3.308,1.518,3.308c1.004,0,1.162-1.344,1.162-2.03h-1.254v-1.844H122.361z"
				/>
			<path class="st10" d="M135.648,57.926v1.844h-1.557v8.091h-1.967V59.77h-1.544v-1.844H135.648z"/>
			<path class="st10" d="M142.726,57.926v1.844h-1.993v2.161h1.755v1.845h-1.755v2.24h2.019v1.844h-3.986v-9.935H142.726z"/>
			<path class="st10" d="M146.163,67.861v-9.935h1.98c1.254,0,3.498,0.132,3.498,2.846c0,1.093-0.436,2.029-1.412,2.57l1.728,4.519
				h-2.072l-1.729-4.586h-0.026v4.586H146.163z M148.13,62.195l0.343,0.013c0.897,0,1.254-0.606,1.254-1.423
				c0-0.711-0.343-1.292-1.334-1.238h-0.263V62.195z"/>
			<path class="st10" d="M158.443,57.926l0.964,5.864h0.026l0.792-5.864h2.64l1.044,9.935h-2.019l-0.476-7.155h-0.026l-0.317,2.452
				l-0.845,4.704h-1.518l-0.964-4.757l-0.33-2.213v-0.185h-0.026l-0.291,7.155h-2.112l0.872-9.935H158.443z"/>
			<path class="st10" d="M176.549,57.926v1.844h-1.993v2.161h1.755v1.845h-1.755v2.24h2.019v1.844h-3.986v-9.935H176.549z"/>
			<path class="st10" d="M184.948,59.797c-0.251-0.067-0.489-0.105-0.739-0.105c-1.729,0-2.482,1.568-2.482,3.096
				c0,1.475,0.752,3.294,2.469,3.294c0.25,0,0.501-0.065,0.752-0.145v1.858c-0.291,0.118-0.594,0.171-0.911,0.171
				c-2.837,0-4.409-2.556-4.409-5.165c0-2.465,1.637-4.994,4.316-4.994c0.344,0,0.674,0.067,1.004,0.185V59.797z"/>
			<path class="st10" d="M194.812,62.893c0,3.729-1.742,5.125-3.497,5.125c-1.756,0-3.498-1.396-3.498-5.125
				c0-3.729,1.742-5.125,3.498-5.125C193.07,57.768,194.812,59.164,194.812,62.893z M191.314,66.201
				c1.307,0,1.399-2.517,1.399-3.308c0-0.883-0.092-3.308-1.399-3.308s-1.399,2.425-1.399,3.308
				C189.915,63.684,190.008,66.201,191.314,66.201z"/>
			<path class="st10" d="M200.043,57.926v8.091h2.059v1.844h-4.026v-9.935H200.043z"/>
			<path class="st10" d="M211.859,62.893c0,3.729-1.742,5.125-3.497,5.125c-1.756,0-3.498-1.396-3.498-5.125
				c0-3.729,1.742-5.125,3.498-5.125C210.117,57.768,211.859,59.164,211.859,62.893z M208.362,66.201
				c1.307,0,1.399-2.517,1.399-3.308c0-0.883-0.092-3.308-1.399-3.308s-1.399,2.425-1.399,3.308
				C206.963,63.684,207.055,66.201,208.362,66.201z"/>
			<path class="st10" d="M221.513,62.327v0.777c0,2.108-0.515,4.915-3.194,4.915c-2.679,0-3.551-2.872-3.551-5.073
				c0-2.293,0.739-5.178,3.551-5.178c1.518,0,2.507,0.948,2.93,2.358l-1.913,0.738c-0.092-0.501-0.251-1.279-1.004-1.279
				c-1.333-0.078-1.465,2.372-1.465,3.308c0,1.028,0.066,3.308,1.518,3.308c1.004,0,1.162-1.344,1.162-2.03h-1.254v-1.844H221.513z"
				/>
			<path class="st10" d="M226.745,57.926v9.935h-1.967v-9.935H226.745z"/>
			<path class="st10" d="M235.328,59.797c-0.251-0.067-0.489-0.105-0.739-0.105c-1.729,0-2.482,1.568-2.482,3.096
				c0,1.475,0.752,3.294,2.469,3.294c0.25,0,0.501-0.065,0.752-0.145v1.858c-0.291,0.118-0.594,0.171-0.911,0.171
				c-2.837,0-4.409-2.556-4.409-5.165c0-2.465,1.637-4.994,4.316-4.994c0.344,0,0.674,0.067,1.004,0.185V59.797z"/>
			<path class="st10" d="M242.34,57.926l2.389,9.935h-2.099l-0.37-1.674h-1.994l-0.356,1.674h-1.954l2.31-9.935H242.34z
				 M241.469,61.984l-0.225-1.503h-0.026l-0.212,1.503l-0.422,2.648h1.386L241.469,61.984z"/>
			<path class="st10" d="M249.71,57.926v8.091h2.059v1.844h-4.026v-9.935H249.71z"/>
			<path class="st10" d="M260.341,67.861v-9.935h1.98c1.254,0,3.498,0.132,3.498,2.846c0,1.093-0.436,2.029-1.412,2.57l1.728,4.519
				h-2.072l-1.729-4.586h-0.026v4.586H260.341z M262.308,62.195l0.343,0.013c0.897,0,1.254-0.606,1.254-1.423
				c0-0.711-0.343-1.292-1.334-1.238h-0.263V62.195z"/>
			<path class="st10" d="M273.518,57.926v1.844h-1.993v2.161h1.755v1.845h-1.755v2.24h2.019v1.844h-3.986v-9.935H273.518z"/>
			<path class="st10" d="M281.047,60.166c-0.396-0.343-0.884-0.633-1.425-0.633c-0.607,0-0.99,0.369-0.99,0.975
				c0,1.634,2.995,1.726,2.995,4.414c0,1.766-1.016,3.096-2.864,3.096c-0.553,0-1.24-0.171-1.689-0.5v-1.871
				c0.462,0.317,0.911,0.527,1.492,0.527c0.634,0,1.135-0.422,1.135-1.08c0-0.764-0.607-1.055-1.161-1.45
				c-1.136-0.764-1.835-1.502-1.835-2.952c0-1.568,0.91-2.925,2.6-2.925c0.633,0,1.202,0.171,1.742,0.487V60.166z"/>
			<path class="st10" d="M288.944,57.926v1.844h-1.993v2.161h1.755v1.845h-1.755v2.24h2.019v1.844h-3.986v-9.935H288.944z"/>
			<path class="st10" d="M296.169,57.926l2.389,9.935h-2.099l-0.37-1.674h-1.994l-0.356,1.674h-1.954l2.31-9.935H296.169z
				 M295.298,61.984l-0.225-1.503h-0.026l-0.212,1.503l-0.422,2.648h1.386L295.298,61.984z"/>
			<path class="st10" d="M301.572,67.861v-9.935h1.98c1.254,0,3.498,0.132,3.498,2.846c0,1.093-0.436,2.029-1.412,2.57l1.728,4.519
				h-2.072l-1.729-4.586h-0.026v4.586H301.572z M303.539,62.195l0.343,0.013c0.897,0,1.254-0.606,1.254-1.423
				c0-0.711-0.343-1.292-1.334-1.238h-0.263V62.195z"/>
			<path class="st10" d="M315.753,59.797c-0.251-0.067-0.489-0.105-0.739-0.105c-1.729,0-2.482,1.568-2.482,3.096
				c0,1.475,0.752,3.294,2.469,3.294c0.25,0,0.501-0.065,0.752-0.145v1.858c-0.291,0.118-0.594,0.171-0.911,0.171
				c-2.837,0-4.409-2.556-4.409-5.165c0-2.465,1.637-4.994,4.316-4.994c0.344,0,0.674,0.067,1.004,0.185V59.797z"/>
			<path class="st10" d="M320.945,57.926v3.887h1.993v-3.887h1.967v9.935h-1.967v-4.204h-1.993v4.204h-1.967v-9.935H320.945z"/>
		</g>
	</g>
	<g>
		<path class="st10" d="M90.236,5.563l0.198,3.334v3.65h-1.32V2.612h1.267l2.324,7.55l0.026-0.027l-0.317-3.979V2.612h1.321v9.935
			h-1.228l-2.322-7.656l-0.027,0.027L90.236,5.563z"/>
		<path class="st10" d="M101.341,2.612l2.139,9.935h-1.333l-0.37-1.938h-1.98l-0.37,1.938h-1.294l2.165-9.935H101.341z
			 M101.316,8.146l-0.502-3.61h-0.026l-0.792,5.046h1.584L101.316,8.146z"/>
		<path class="st10" d="M110.916,2.612v1.146h-1.492v8.789h-1.32V3.758h-1.557V2.612H110.916z"/>
		<path class="st10" d="M116.53,12.547h-1.32V2.612h1.32V12.547z"/>
		<path class="st10" d="M126.604,7.579c0,1.792-0.027,5.1-2.587,5.1c-2.561,0-2.587-3.308-2.587-5.1c0-1.793,0.026-5.1,2.587-5.1
			C126.577,2.48,126.604,5.787,126.604,7.579z M122.83,7.579c0,2.108,0.145,3.86,1.188,3.86s1.188-1.752,1.188-3.86
			s-0.145-3.861-1.188-3.861S122.83,5.471,122.83,7.579z"/>
		<path class="st10" d="M132.629,5.563l0.198,3.334v3.65h-1.32V2.612h1.267l2.324,7.55l0.026-0.027l-0.317-3.979V2.612h1.321v9.935
			h-1.228l-2.322-7.656l-0.027,0.027L132.629,5.563z"/>
		<path class="st10" d="M143.734,2.612l2.139,9.935h-1.333l-0.37-1.938h-1.98l-0.37,1.938h-1.294l2.165-9.935H143.734z
			 M143.708,8.146l-0.502-3.61h-0.026l-0.792,5.046h1.584L143.708,8.146z"/>
		<path class="st10" d="M151.604,2.612V11.4h2.218v1.147h-3.538V2.612H151.604z"/>
		<path class="st10" d="M173.751,4.14c-0.343-0.25-0.673-0.422-1.122-0.422c-0.725,0-1.175,0.593-1.175,1.279
			c0,0.435,0.106,0.737,0.37,1.08l1.004,1.093c0.897,0.909,1.412,1.568,1.412,2.912c0,1.397-0.872,2.596-2.336,2.596
			c-0.515,0-1.042-0.146-1.452-0.475v-1.33c0.397,0.29,0.792,0.514,1.307,0.514c0.818,0,1.162-0.646,1.162-1.384
			c0-1.976-2.786-2.371-2.786-4.981c0-1.397,0.739-2.543,2.231-2.543c0.502,0,0.977,0.079,1.399,0.329L173.751,4.14z"/>
		<path class="st10" d="M182.758,3.969c-0.263-0.132-0.541-0.251-0.845-0.251c-1.847,0-1.86,2.689-1.86,3.927
			c0,1.318,0.105,3.795,1.913,3.795c0.291,0,0.542-0.065,0.792-0.197v1.16c-0.33,0.21-0.673,0.277-1.055,0.277
			c-2.693,0-3.049-2.859-3.049-4.942c0-1.989,0.25-5.257,2.957-5.257c0.448,0,0.765,0.065,1.148,0.29V3.969z"/>
		<path class="st10" d="M188.635,12.547h-1.32V2.612h1.32V12.547z"/>
		<path class="st10" d="M197.337,2.612v1.146h-2.231v3.123h1.994v1.146h-1.994V11.4h2.231v1.147h-3.551V2.612H197.337z"/>
		<path class="st10" d="M203.031,5.563l0.198,3.334v3.65h-1.32V2.612h1.267l2.324,7.55l0.026-0.027l-0.317-3.979V2.612h1.321v9.935
			h-1.228l-2.322-7.656l-0.027,0.027L203.031,5.563z"/>
		<path class="st10" d="M215.536,3.969c-0.263-0.132-0.541-0.251-0.845-0.251c-1.847,0-1.86,2.689-1.86,3.927
			c0,1.318,0.105,3.795,1.913,3.795c0.291,0,0.542-0.065,0.792-0.197v1.16c-0.33,0.21-0.673,0.277-1.055,0.277
			c-2.693,0-3.049-2.859-3.049-4.942c0-1.989,0.25-5.257,2.957-5.257c0.448,0,0.765,0.065,1.148,0.29V3.969z"/>
		<path class="st10" d="M223.644,2.612v1.146h-2.231v3.123h1.994v1.146h-1.994V11.4h2.231v1.147h-3.551V2.612H223.644z"/>
		<path class="st10" d="M244.285,2.612v1.146h-2.257v3.123h2.033v1.146h-2.033v4.52h-1.32V2.612H244.285z"/>
		<path class="st10" d="M253.687,7.579c0,1.792-0.026,5.1-2.587,5.1c-2.561,0-2.587-3.308-2.587-5.1c0-1.793,0.026-5.1,2.587-5.1
			C253.662,2.48,253.687,5.787,253.687,7.579z M249.913,7.579c0,2.108,0.145,3.86,1.188,3.86c1.042,0,1.188-1.752,1.188-3.86
			s-0.145-3.861-1.188-3.861C250.058,3.718,249.913,5.471,249.913,7.579z"/>
		<path class="st10" d="M259.908,2.612v7.286c0,1.279,0.383,1.542,0.924,1.542c0.91,0,0.99-0.579,1.003-1.397V2.612h1.32v7.049
			c0,1.305,0.014,3.018-2.283,3.018c-2.099,0-2.284-1.424-2.284-3.216V2.612H259.908z"/>
		<path class="st10" d="M269.416,5.563l0.198,3.334v3.65h-1.32V2.612h1.267l2.324,7.55l0.026-0.027l-0.317-3.979V2.612h1.321v9.935
			h-1.228l-2.323-7.656l-0.027,0.027L269.416,5.563z"/>
		<path class="st10" d="M279.545,2.612c1.557,0,3.326,0.105,3.326,5.138c0,4.586-1.531,4.797-3.894,4.797h-0.911V2.612H279.545z
			 M279.386,3.732v7.695c2.178,0.065,2.086-1.99,2.086-3.677C281.472,6.222,281.617,3.6,279.386,3.732z"/>
		<path class="st10" d="M290.214,2.612l2.139,9.935h-1.333l-0.37-1.938h-1.98l-0.37,1.938h-1.294l2.165-9.935H290.214z
			 M290.188,8.146l-0.502-3.61h-0.026l-0.792,5.046h1.584L290.188,8.146z"/>
		<path class="st10" d="M299.79,2.612v1.146h-1.492v8.789h-1.32V3.758h-1.557V2.612H299.79z"/>
		<path class="st10" d="M305.403,12.547h-1.32V2.612h1.32V12.547z"/>
		<path class="st10" d="M315.478,7.579c0,1.792-0.026,5.1-2.587,5.1c-2.561,0-2.587-3.308-2.587-5.1c0-1.793,0.026-5.1,2.587-5.1
			C315.452,2.48,315.478,5.787,315.478,7.579z M311.703,7.579c0,2.108,0.145,3.86,1.188,3.86c1.043,0,1.188-1.752,1.188-3.86
			s-0.145-3.861-1.188-3.861C311.849,3.718,311.703,5.471,311.703,7.579z"/>
		<path class="st10" d="M321.502,5.563l0.198,3.334v3.65h-1.32V2.612h1.267l2.324,7.55l0.026-0.027l-0.317-3.979V2.612H325v9.935
			h-1.228l-2.322-7.656l-0.027,0.027L321.502,5.563z"/>
	</g>
</g>
</svg>
