<?xml version="1.0" encoding="UTF-8"?>
<!-- Created with Inkscape (http://www.inkscape.org/) -->
<svg width="153" height="152.58" version="1.1" viewBox="0 0 153 152.58" xmlns="http://www.w3.org/2000/svg" xmlns:cc="http://creativecommons.org/ns#" xmlns:dc="http://purl.org/dc/elements/1.1/" xmlns:rdf="http://www.w3.org/1999/02/22-rdf-syntax-ns#">
 <metadata>
  <rdf:RDF>
   <cc:Work rdf:about="">
    <dc:format>image/svg+xml</dc:format>
    <dc:type rdf:resource="http://purl.org/dc/dcmitype/StillImage"/>
    <dc:title/>
   </cc:Work>
  </rdf:RDF>
 </metadata>
 <path d="m0 139.76c0-12.015 0.17271-13.159 2.75-18.2 1.5125-2.9585 4.3536-6.65 6.3136-8.2033 3.4962-2.7707 5.6659-3.4852 33.186-10.928l11.75-3.1779v-5.7668c0-5.2351-0.27006-5.9591-2.9289-7.8524-4.3163-3.0735-10.755-13.307-13.15-20.901-2.9174-9.2496-2.9365-24.131-0.042687-33.222 3.7452-11.765 12-22.106 21.699-27.184 5.0098-2.6229 16.001-4.9023 20.229-4.1951 5.2346 0.87568 13.255 3.4911 16.194 5.281 4.9871 3.0368 12.215 10.803 15.519 16.675 4.4402 7.8911 6.4811 16.077 6.4811 25.996 0 14.416-3.986 24.749-13.782 35.728-5.0048 5.6089-5.3017 6.2371-5.0186 10.617 0.34577 5.3489-2.3149 4.0769 23.301 11.14 19.158 5.2825 19.528 5.4352 23.815 9.8277 5.3738 5.5058 6.6847 10.372 6.6847 24.813v12.374h-153zm146-1.5543c0-10.107-0.73194-12.984-4.3693-17.176-3.3409-3.8503-3.6631-3.9622-37.131-12.899l-12-3.2043-0.29614-6.1124-0.29615-6.1124-4.0796 1.4394c-5.1894 1.8309-17.13 1.7831-22.328-0.0895-2.2-0.79257-4.091-1.4478-4.2023-1.4561-0.11126-8e-3 -0.33626 2.7758-0.5 6.1869l-0.29772 6.202-10 2.6959c-27.696 7.4665-35.939 9.9877-37.616 11.505-3.7978 3.437-5.8839 9.6571-5.8839 17.544 0 4.1347 0.3 7.8176 0.66667 8.1843 0.36667 0.36667 31.642 0.66667 69.5 0.66667h68.833zm-58.708-51.633c13.876-5.1916 23.708-21.191 23.708-38.579v-6.1671l-4.4998 0.50719c-6.1514 0.69335-12.263-1.217-18.151-5.6736l-4.9458-3.7433-4.8843 3.299c-8.1886 5.5309-19.87 6.6222-30.55 2.8542-2.0837-0.73516-4.0542-1.071-4.3789-0.74625-0.32472 0.32472-0.59041 4.4837-0.59041 9.2422 0 14.501 3.9388 24.102 13.457 32.801 8.7292 7.978 20.023 10.251 30.835 6.2054zm21.241-52.045c0.9911-1.6036-4.0471-11.114-8.6697-16.366-10.863-12.341-29.79-14.097-42.115-3.9077-3.8998 3.224-11.747 13.457-11.747 15.318 0 1.781 8.3675 4.0077 15.06 4.0077 10.067 0 15.401-2.9643 19.345-10.75 0.90545-1.7875 2.0756-3.25 2.6003-3.25 0.52469 0 1.8335 1.724 2.9085 3.8311 3.1909 6.2547 12.16 12.049 18.777 12.13 1.755 0.02153 3.4838-0.43456 3.8416-1.0135z" fill="#6c757d"/>
</svg>
