<?xml version="1.0" encoding="UTF-8"?>
<!-- Created with Inkscape (http://www.inkscape.org/) -->
<svg width="186.26" height="213.87" version="1.1" viewBox="0 0 186.26 213.87" xmlns="http://www.w3.org/2000/svg" xmlns:cc="http://creativecommons.org/ns#" xmlns:dc="http://purl.org/dc/elements/1.1/" xmlns:rdf="http://www.w3.org/1999/02/22-rdf-syntax-ns#">
 <metadata>
  <rdf:RDF>
   <cc:Work rdf:about="">
    <dc:format>image/svg+xml</dc:format>
    <dc:type rdf:resource="http://purl.org/dc/dcmitype/StillImage"/>
    <dc:title/>
   </cc:Work>
  </rdf:RDF>
 </metadata>
 <path d="m86.256 212.87c0-0.55-0.57491-1-1.2776-1-1.4431 0-12.953-5.8049-13.722-6.9208-0.275-0.39879-1.175-1.0269-2-1.3958-2.6838-1.2-5.3276-3.1219-8.8499-6.4334-1.9013-1.7875-3.8379-3.25-4.3035-3.25-0.46563 0-0.8466-0.675-0.8466-1.5s-0.5794-1.5-1.2876-1.5-4.6457-3.66-8.75-8.1333-8.6999-9.4388-10.212-11.034-2.75-3.5748-2.75-4.398-0.5894-1.7231-1.3098-1.9995c-0.72038-0.27643-2.6149-2.7373-4.2101-5.4686-1.5952-2.7313-3.2558-4.966-3.6902-4.966-0.43446 0-0.78992-1.0769-0.78992-2.393 0-1.3162-0.675-2.652-1.5-2.9686-0.825-0.31658-1.5-1.4522-1.5-2.5236s-0.3375-2.098-0.75-2.2814c-1.3591-0.60406-9.238-18.024-9.2818-20.521-0.01749-0.99656-0.69249-2.6854-1.5-3.7531-0.80751-1.0676-1.4682-3.1786-1.4682-4.691s-0.45-3.028-1-3.3679-1-2.211-1-4.1579-0.63987-4.9579-1.4219-6.691c-2.1825-4.8367-2.8733-14.14-2.8327-38.151 0.04064-24.039 0.69837-31.793 2.8482-33.578 0.77358-0.64202 1.4065-1.5968 1.4065-2.1218 0-2.6844 10.563-9.8006 14.547-9.8006 0.8138 0 2.261-0.39566 3.2161-0.87925 1.8492-0.93637 7.963-2.8613 17.736-5.5844 3.3-0.91945 7.0337-2.0913 8.2971-2.604 1.2634-0.51277 3.3109-0.93231 4.55-0.93231s2.6804-0.41541 3.2029-0.92314c0.87486-0.85012 4.5196-1.7531 16.45-4.0756 2.475-0.4818 6.525-1.3346 9-1.8951 5.7742-1.3076 17.226-1.3076 23 0 2.475 0.5605 6.525 1.4077 9 1.8828 8.957 1.7191 14.534 3.1108 16.236 4.0515 0.95504 0.52777 3.066 0.95959 4.691 0.95959 1.625 0 3.2085 0.41084 3.5188 0.91299 0.31034 0.50214 2.4571 1.2328 4.7706 1.6236 2.3135 0.39086 4.8986 1.0507 5.7448 1.4663 2.8322 1.391 11.518 4.0071 13.288 4.0021 0.9625-0.0027 1.75 0.44505 1.75 0.99505s0.89089 1 1.9798 1c5.2725 0 16.02 6.7051 16.02 9.9945 0 0.63159 0.675 1.8234 1.5 2.6484 0.92262 0.92262 1.5 3.3744 1.5 6.3696 0 2.6783 0.45 5.1477 1 5.4876 0.61516 0.38019 1 8.6771 1 21.559 0 13.294-0.36517 20.941-1 20.941-0.55934 0-1.0027 2.7541-1.0062 6.25-4e-3 3.5874-0.64255 7.4702-1.5 9.1143-0.82161 1.5754-1.4938 4.8379-1.4938 7.25s-0.39075 4.3857-0.86833 4.3857-1.1236 1.9028-1.4355 4.2285c-0.31194 2.3257-1.0462 4.3882-1.6317 4.5833s-1.0645 1.6408-1.0645 3.2125c0 1.5717-0.41538 3.1144-0.92306 3.4281-0.50769 0.31377-1.2184 1.9153-1.5795 3.559-0.36101 1.6437-1.0706 2.9885-1.5769 2.9885-0.50629 0-0.92054 1.0699-0.92054 2.3776 0 1.3076-0.675 2.9378-1.5 3.6224s-1.5 2.0898-1.5 3.1224c0 1.0327-0.45 1.8776-1 1.8776s-1 0.91412-1 2.0314c0 1.1173-0.675 2.2904-1.5 2.607-0.825 0.31659-1.5 1.3618-1.5 2.3226 0 0.96084-1.125 2.9609-2.5 4.4445s-2.5 3.1853-2.5 3.7814c0 0.5961-1.125 2.1264-2.5 3.4007s-2.5 3.0275-2.5 3.8961c0 0.86852-0.675 1.8382-1.5 2.1547-0.825 0.31659-1.5 1.0368-1.5 1.6005 0 0.56372-1.575 2.5104-3.5 4.3259s-3.5 3.7811-3.5 4.3681c0 0.58693-0.675 1.0672-1.5 1.0672s-1.5 0.48529-1.5 1.0784c0 1.3752-7.5797 8.9216-8.961 8.9216-0.57147 0-1.039 0.675-1.039 1.5s-0.48022 1.5-1.0672 1.5c-0.58694 0-2.4994 1.5123-4.25 3.3606-1.7506 1.8483-4.1954 3.6787-5.4328 4.0674-1.2375 0.38873-2.25 1.1264-2.25 1.6394 0 0.51293-0.675 0.93261-1.5 0.93261s-1.5 0.37319-1.5 0.82931c0 0.94345-11.993 7.1707-13.81 7.1707-0.6546 0-1.1902 0.45-1.1902 1 0 0.5641-2.8333 1-6.5 1s-6.5-0.4359-6.5-1zm14.424-17.109c1.6916-1.0305 3.7506-2.1898 4.5756-2.5763 0.825-0.38645 2.0469-1.1778 2.7153-1.7586 3.1938-2.775 4.2462-3.556 4.7921-3.556 0.32547 0 2.2135-1.575 4.1956-3.5s3.9848-3.5 4.4504-3.5 0.8466-0.675 0.8466-1.5 0.45-1.5 1-1.5 2.8-1.8 5-4 4-4.45 4-5 0.675-1 1.5-1 1.5-0.5109 1.5-1.1353 1.125-2.1779 2.5-3.4522 2.5-2.6805 2.5-3.1249 1.0125-1.9522 2.25-3.3508c2.8383-3.2077 4.6435-5.9467 5.3957-8.1868 0.32318-0.9625 0.98512-1.75 1.471-1.75s0.88337-0.91412 0.88337-2.0314c0-1.1173 0.675-2.2904 1.5-2.607 0.825-0.31659 1.5-1.6525 1.5-2.9686 0-1.3162 0.40122-2.393 0.89159-2.393 0.49038 0 1.174-1.125 1.519-2.5 0.34511-1.375 1.0689-2.5 1.6084-2.5s0.98095-1.125 0.98095-2.5 0.39992-2.5 0.88871-2.5 1.1842-1.575 1.5453-3.5 1.0862-3.5 1.6113-3.5c0.52508 0 0.95469-1.575 0.95469-3.5s0.4345-3.5 0.96556-3.5c0.53105 0 1.264-2.25 1.6288-5s1.0553-5 1.5344-5 0.87117-2.61 0.87117-5.8c0-3.3067 0.53736-6.3374 1.25-7.05 0.93494-0.93494 1.25-7.7067 1.25-26.867 0-19.604-0.29337-25.714-1.25-26.033-0.6875-0.22917-1.25-1.0542-1.25-1.8333 0-0.77917-0.87344-1.4167-1.941-1.4167s-2.1826-0.39089-2.4778-0.86865c-0.29527-0.47776-2.3468-1.1581-4.559-1.5118-2.2122-0.35374-4.0222-1.0879-4.0222-1.6314 0-0.5435-1.5484-0.98818-3.441-0.98818s-3.6949-0.41084-4.0052-0.91299c-0.31034-0.50214-2.4571-1.2328-4.7706-1.6236-2.3135-0.39086-4.8986-1.0416-5.7448-1.4461-3.6882-1.763-12.062-4.0173-14.923-4.0173-1.7137 0-3.1158-0.38804-3.1158-0.86232 0-0.47428-2.5579-1.1629-5.6841-1.5304-3.1263-0.36743-6.2398-1.1292-6.9189-1.6928-2.813-2.3346-34.776 0.17593-40.633 3.1915-0.95504 0.49172-2.8126 0.89403-4.1279 0.89403-1.3153 0-4.0069 0.675-5.9814 1.5s-4.7295 1.5-6.1221 1.5c-1.3927 0-2.5321 0.3989-2.5321 0.88646s-2.0145 1.1886-4.4767 1.5578c-2.4622 0.36923-4.7387 1.0953-5.059 1.6135-0.32028 0.51822-2.1308 0.94222-4.0233 0.94222s-3.441 0.44468-3.441 0.98818c0 0.5435-1.81 1.2776-4.0222 1.6314-2.2122 0.35374-4.2637 1.0341-4.559 1.5118-0.29527 0.47776-1.4103 0.86865-2.4778 0.86865s-1.941 0.6375-1.941 1.4167c0 0.77917-0.5625 1.6037-1.25 1.8323-0.94307 0.31358-1.324 6.3849-1.5515 24.726-0.2498 20.145-0.0356 24.975 1.25 28.188 0.8533 2.1326 1.5515 5.8668 1.5515 8.2982s0.45 4.6989 1 5.0388 1 2.0805 1 3.8679 0.66069 4.1234 1.4682 5.191c0.80751 1.0676 1.4825 3.4036 1.5 5.1911 0.01749 1.7875 0.44605 3.25 0.95235 3.25 0.5063 0 1.2171 1.35 1.5795 3s1.0732 3 1.5795 3c0.5063 0 0.92054 1.125 0.92054 2.5s0.38886 2.5 0.86414 2.5 1.6804 2.1372 2.6779 4.7494c0.99759 2.6122 2.4087 5.3443 3.1359 6.0714s1.3221 1.9649 1.3221 2.7506c0 0.78571 0.40122 1.4286 0.89159 1.4286s1.1739 1.125 1.5191 2.5 1.0689 2.5 1.6084 2.5 0.98095 0.48214 0.98095 1.0714c0 0.58928 0.5625 1.6987 1.25 2.4653 2.6945 3.0046 3.75 4.4032 3.75 4.9688 0 0.32448 1.125 1.6326 2.5 2.9069s2.5 2.5619 2.5 2.8613c0 1.1464 10.635 11.726 11.787 11.726 0.66711 0 1.2129 0.675 1.2129 1.5s0.34731 1.5 0.7718 1.5c0.42448 0 2.9681 2.0165 5.6526 4.481 2.6844 2.4646 5.7121 4.7449 6.7282 5.0674 1.0161 0.3225 1.8474 1.006 1.8474 1.519 0 0.51293 0.675 0.93261 1.5 0.93261s1.5 0.40598 1.5 0.90217c0 0.80619 2.2839 1.9324 8.5 4.1914 2.6951 0.97945 7.1879 0.0735 10.924-2.2028zm-17.924-75.899c-7.5401-6.8483-22.5-22.078-22.5-22.906 0-0.59695-0.45-1.0854-1-1.0854-1.3551 0-1.2578-2.0504 0.25-5.2719 1.3473-2.8785 5.3005-4.3229 8.7955-3.2136 2.4406 0.7746 12.954 10.855 12.954 12.42 0 0.58584 0.675 1.0652 1.5 1.0652s1.5 0.45 1.5 1c0 2.9955 4.5636-0.72797 20.836-17 14.942-14.942 18.486-18 20.86-18 1.6279 0 3.6019 0.86652 4.5822 2.0114 1.8406 2.1496 2.3901 8.9886 0.72224 8.9886-0.55 0-1 0.675-1 1.5s-0.45174 1.5-1.0039 1.5c-1.2211 0-16.996 15.896-16.996 17.126 0 0.48064-0.48214 0.87388-1.0714 0.87388-1.3845 0-3.9286 2.5441-3.9286 3.9286 0 0.58929-0.46517 1.0714-1.0337 1.0714-1.1991 0-6.9663 5.6838-6.9663 6.8655 0 0.4381-1.125 1.3986-2.5 2.1345s-2.5056 1.8244-2.5124 2.419c-0.0168 1.4648-6.5282 5.5932-8.7236 5.531-0.97021-0.0275-2.214-0.45871-2.764-0.95825z" fill="#6c757d"/>
</svg>
