<?xml version="1.0" encoding="UTF-8" standalone="no"?>
<!-- Created with Inkscape (http://www.inkscape.org/) -->

<svg
   xmlns:dc="http://purl.org/dc/elements/1.1/"
   xmlns:cc="http://creativecommons.org/ns#"
   xmlns:rdf="http://www.w3.org/1999/02/22-rdf-syntax-ns#"
   xmlns:svg="http://www.w3.org/2000/svg"
   xmlns="http://www.w3.org/2000/svg"
   xmlns:sodipodi="http://sodipodi.sourceforge.net/DTD/sodipodi-0.dtd"
   xmlns:inkscape="http://www.inkscape.org/namespaces/inkscape"
   version="1.1"
   id="svg2618"
   width="960"
   height="540"
   viewBox="0 0 960 540"
   sodipodi:docname="slack_circle.svg"
   inkscape:version="0.92.3 (2405546, 2018-03-11)">
  <metadata
     id="metadata2624">
    <rdf:RDF>
      <cc:Work
         rdf:about="">
        <dc:format>image/svg+xml</dc:format>
        <dc:type
           rdf:resource="http://purl.org/dc/dcmitype/StillImage" />
        <dc:title></dc:title>
      </cc:Work>
    </rdf:RDF>
  </metadata>
  <defs
     id="defs2622" />
  <sodipodi:namedview
     pagecolor="#666666"
     bordercolor="#666666"
     borderopacity="1"
     objecttolerance="10"
     gridtolerance="10"
     guidetolerance="10"
     inkscape:pageopacity="0"
     inkscape:pageshadow="2"
     inkscape:window-width="1920"
     inkscape:window-height="1080"
     id="namedview2620"
     showgrid="false"
     inkscape:zoom="1.5052083"
     inkscape:cx="480"
     inkscape:cy="270"
     inkscape:window-x="0"
     inkscape:window-y="53"
     inkscape:window-maximized="1"
     inkscape:current-layer="svg2618" />
  <path
     style="fill:#ffffff;fill-opacity:1"
     d="m 448,510.37005 c -51.47543,-6.98224 -99.2437,-30.22001 -136.35631,-66.33307 -14.76024,-14.3627 -22.20607,-23.2313 -33.2959,-39.65814 C 257.8704,374.04664 244.38892,337.88339 239.43588,300 237.12931,282.35819 237.87919,248.42077 240.95765,231.12838 256.09208,146.11504 312.32265,77.294592 392.50594,45.648815 455.32837,20.85481 529.03695,24.719121 590.5,56.029028 646.25509,84.431245 690.12797,135.37943 709.86719,194.64641 718.20752,219.68821 722,243.55486 722,271 c 0,38.75304 -7.42807,70.74924 -24.49235,105.5 -12.43233,25.31799 -23.79921,41.54758 -43.00765,61.40616 -38.96237,40.28111 -88.70703,65.38039 -143.80122,72.55668 -14.82395,1.93089 -48.14307,1.88158 -62.69878,-0.0928 z m 2,-85.20399 c 5.77719,-2.99637 12.69653,-9.68949 14.64485,-14.16606 0.8378,-1.925 1.93545,-4.28139 2.43922,-5.23643 C 468.37294,403.32011 468.29154,304.29822 467,303.5 c -0.55,-0.33992 -1,-1.27612 -1,-2.08046 0,-1.96146 -4.86222,-9.372 -7.98655,-12.17235 -1.3824,-1.23905 -4.95427,-3.48905 -7.93748,-5 -4.67376,-2.36719 -6.62046,-2.74691 -14.07348,-2.7452 -7.17451,0.002 -9.44847,0.41295 -13.33517,2.41196 -9.37225,4.82032 -14.30262,10.70479 -17.58275,20.98527 C 404.369,307.14195 404,324.22545 404,355.11171 c 0,44.62069 0.0952,47.0678 2.03335,52.24787 2.82555,7.55196 9.10203,14.3482 16.4486,17.81072 5.34752,2.52035 6.96512,2.80815 14.51805,2.58304 6.60954,-0.197 9.50083,-0.77243 13,-2.58728 z m 87.39107,-1.45932 c 12.78746,-8.49722 18.08892,-24.51745 12.91266,-39.0201 -2.42171,-6.78504 -9.96987,-14.88898 -17.11358,-18.37367 -5.53718,-2.70103 -6.22468,-2.78535 -25.57403,-3.13671 -15.84985,-0.28781 -20.05649,-0.0887 -20.73468,0.98134 -1.391,2.1947 -1.01038,32.6618 0.48754,39.02633 2.36233,10.03734 8.25684,17.43587 18.13102,22.75725 3.5329,1.90395 5.29517,2.12083 15.0913,1.85725 10.96177,-0.29494 11.15797,-0.34273 16.79977,-4.09169 z m 75.18079,-79.36212 C 627.08122,339.47086 635,328.35277 635,312.85517 c 0,-6.54624 -0.47367,-8.98028 -2.63782,-13.55492 -3.37282,-7.12954 -9.06594,-12.80093 -16.21422,-16.15229 L 610.5,280.5 H 561 511.5 l -5.5,2.59708 c -17.93739,8.46998 -24.68134,29.94443 -14.68215,46.75166 3.8203,6.42136 8.85678,10.62305 16.50374,13.76825 5.67124,2.33259 5.73784,2.33557 52.75027,2.35927 41.19598,0.0208 47.68703,-0.1829 52,-1.63164 z m -245.29407,-2.34517 c 6.44952,-3.03164 13.89811,-11.38847 16.02754,-17.98187 C 384.65447,319.8402 385,314.89921 385,299.78412 v -18.98621 l -20.75,0.39473 c -20.60267,0.39193 -20.7855,0.41483 -25.75,3.22431 -6.752,3.82105 -10.04082,7.05394 -13.8181,13.58305 -2.97474,5.14191 -3.18014,6.11852 -3.15489,15 0.0225,7.90841 0.40669,10.21958 2.29331,13.79506 4.57836,8.67683 12.22192,15.08243 20.67968,17.3304 5.37849,1.42954 17.65048,0.28411 22.77779,-2.12601 z m 83.01269,-82.43153 c 6.76716,-3.42664 13.00325,-9.79826 16.04358,-16.39225 3.1811,-6.89931 3.08845,-20.80228 -0.18289,-27.44556 -3.00446,-6.10128 -10.05118,-13.148 -16.00027,-16.00026 C 445.5278,197.51333 445.19516,197.5 394.5,197.5 h -51 l -4.78897,2.44672 c -18.75138,9.58021 -24.34948,33.06644 -11.83582,49.65595 4.09063,5.42299 12.25371,10.8356 18.53514,12.28991 2.32662,0.53866 24.5667,0.87369 51.58965,0.77713 L 444.5,262.5 Z m 83.13925,-0.98974 c 8.95139,-4.37951 14.12931,-10.51159 17.07526,-20.22181 1.20452,-3.97024 1.47534,-13.17699 1.48419,-50.45715 0.007,-29.98511 -0.35985,-46.76481 -1.07161,-49 -4.00999,-12.59275 -12.0616,-20.41838 -24.3145,-23.63207 -10.65965,-2.79581 -21.10776,0.27644 -29.54393,8.68736 -10.05459,10.02449 -10.03749,9.91538 -10.03749,64.04549 0,47.1399 0.19487,49.74901 4.30554,57.64753 3.30007,6.34096 9.90118,11.65625 18.1519,14.61611 6.83407,2.45165 16.94968,1.73979 23.95064,-1.68546 z m 81.78986,0.8479 c 6.21136,-2.59378 13.52254,-9.67718 16.4278,-15.916 3.10279,-6.66299 3.31388,-20.79602 0.40626,-27.20039 -2.48511,-5.47375 -8.89779,-12.33146 -13.71852,-14.67056 -2.10932,-1.02347 -4.61652,-2.26097 -5.57156,-2.75 C 611.80853,198.40011 607.37287,198 602.90654,198 c -6.97337,0 -9.0156,0.42714 -14.45575,3.02349 -6.98918,3.33562 -12.06317,8.51066 -15.53108,15.84039 -1.94036,4.1011 -2.25133,6.79055 -2.69467,23.30514 -0.27564,10.26795 -0.21256,19.42112 0.14019,20.34038 0.57657,1.5025 2.63645,1.63176 20.38807,1.27944 16.80071,-0.33345 20.45081,-0.68595 24.46629,-2.36276 z M 468.77147,160.28609 c 0.24048,-17.02087 0.0455,-19.8567 -1.70795,-24.84568 -3.90874,-11.12107 -13.25611,-19.03766 -25.26886,-21.40103 -14.03209,-2.76064 -28.78388,5.09558 -35.59013,18.9539 -2.26146,4.60459 -2.70208,6.81731 -2.68958,13.50672 0.0234,12.53674 5.27711,21.9828 15.72572,28.27473 7.3662,4.43577 11.38824,5.05339 31.75933,4.87689 L 468.5,179.5 Z"
     id="path2628"
     inkscape:connector-curvature="0" />
</svg>
