<?xml version="1.0" encoding="UTF-8"?>
<!-- Created with Inkscape (http://www.inkscape.org/) -->
<svg width="189.48" height="177.87" version="1.1" viewBox="0 0 189.48 177.87" xmlns="http://www.w3.org/2000/svg" xmlns:cc="http://creativecommons.org/ns#" xmlns:dc="http://purl.org/dc/elements/1.1/" xmlns:rdf="http://www.w3.org/1999/02/22-rdf-syntax-ns#">
 <metadata>
  <rdf:RDF>
   <cc:Work rdf:about="">
    <dc:format>image/svg+xml</dc:format>
    <dc:type rdf:resource="http://purl.org/dc/dcmitype/StillImage"/>
    <dc:title/>
   </cc:Work>
  </rdf:RDF>
 </metadata>
 <path d="m163.83 177.09c-5.1412-0.45668-7.2556-1.1415-9.2158-2.9848l-2.5438-2.3922-39.784 1.7015c-38.755 1.6575-39.939 1.6527-45.784-0.18635-6.8405-2.1524-60.814-33.14-64.25-36.888-1.2844-1.4009-2.25-3.7372-2.25-5.4438 0-3.6534 3.9271-7.8988 7.3066-7.8988 3.0837 0 22.515 9.5315 32.536 15.96 10.319 6.6192 12.832 7.5654 25.158 9.4719 11.045 1.7084 38.581 3.5894 40.799 2.7869 0.7145-0.25854 1.1596-1.201 0.98905-2.0942-0.25798-1.3514-3.4149-1.9177-18.799-3.3723-25.782-2.4377-26.698-2.5977-29.708-5.1863-3.7259-3.2049-3.7088-8.5916 0.03913-12.343l2.7204-2.7227 24.73-0.63974c18.864-0.488 26.034-1.0383 30.23-2.3201 3.4752-1.0617 9.1814-1.7075 15.5-1.754 8.3227-0.0613 11.242 0.36181 17.402 2.5228l7.4023 2.5965 2.5844-2.0329c2.3737-1.8671 3.4414-1.9756 13.098-1.3308 18.479 1.2339 18.677 1.5774 16.634 28.852-2.081 27.784-2.0204 27.722-24.792 25.699zm10.601-9.6641c2.1445-2.1445 1.9723-4.7558-0.45885-6.956-4.3686-3.9536-10.7 2.5322-6.9195 7.0879 1.5782 1.9017 5.4134 1.8331 7.3784-0.1319zm-133.6-35.4c-4.6758-2.9367-20.006-11.191-22.829-12.291-1.3333-0.51987-1.3333-0.70273 0-1.6457 2.6826-1.8971 5.3105-1.174 17.857 4.9136 9.607 4.6615 12.222 6.3476 11.75 7.5771-0.33376 0.86977-0.60684 2.2196-0.60684 2.9996 0 1.9965-0.86563 1.7786-6.1709-1.5534zm-0.54272-13.298c-9.3498-4.0986-10.76-5.7302-4.9546-5.7302 2.7163 0 18.203 5.2012 19.576 6.5748 0.59906 0.59907-3.1455 3.3836-4.4081 3.278-0.55-0.046-5.1461-1.9012-10.214-4.1226zm39.926-6.9802c-0.56813-0.6875-1.3375-3.05-1.7098-5.25-1.1469-6.7785-1.3668-7.0759-6.9408-9.3862l-5.418-2.2456-5.1839 3.5659c-2.8511 1.9612-5.6477 3.5659-6.2145 3.5659-1.939 0-10.745-9.6935-10.745-11.828 0-1.1625 1.4184-4.1259 3.152-6.5854l3.152-4.4718-2.4807-5.7442c-2.4798-5.7421-2.4828-5.7446-8.2423-6.8946-3.1689-0.63276-6.164-1.7862-6.6559-2.5633-0.49189-0.77707-0.90124-4.1932-0.90966-7.5914-0.01859-7.4989 1.207-9.0167 8.0099-9.9192 5.5951-0.74222 5.9537-1.0717 8.4155-7.7312l1.785-4.8289-3.1128-4.3346c-1.7121-2.384-3.1128-5.2119-3.1128-6.2842 0-2.4109 9.2339-11.223 11.76-11.223 1.0152 0 3.7663 1.4123 6.1134 3.1384l4.2676 3.1384 5.5219-1.8769c6.0673-2.0623 6.7715-2.8889 7.8121-9.1697 1.0123-6.1104 2.5519-7.2302 9.9413-7.2302 7.5621 0 9.0723 1.2849 10.041 8.5427 0.67111 5.0278 0.69087 5.0506 6.679 7.6972l6.0059 2.6544 4.7982-3.4472c2.639-1.8959 5.3262-3.4472 5.9716-3.4472 2.177 0 11.088 9.1937 11.088 11.44 0 1.1914-1.4123 4.0866-3.1384 6.4338l-3.1384 4.2676 1.8859 5.5482c1.9989 5.8806 3.8485 7.3106 9.456 7.3106 4.7125 0 6.9349 3.0655 6.9349 9.5657 0 6.8831-1.1262 9.1061-4.9917 9.853-1.6546 0.3197-4.3398 0.83798-5.9673 1.1517-2.4102 0.46466-3.426 1.5907-5.4778 6.0724l-2.5189 5.502 3.4778 5.1643c1.9128 2.8404 3.4778 5.5347 3.4778 5.9875 0 1.5026-10.264 11.703-11.776 11.703-0.81703 0-3.6328-1.5426-6.2572-3.4281l-4.7717-3.4281-5.8465 2.3762c-5.8109 2.3617-5.8531 2.4089-6.9203 7.7364-0.59057 2.9481-1.4052 5.8965-1.8103 6.5519-1.0209 1.6519-15.034 1.6021-16.407-0.0583zm18.359-35.643c7.056-3.2048 12.439-11.751 12.424-19.723-0.0177-9.1782-7.4164-19.074-15.986-21.382-17.553-4.7264-33.412 13.126-26.456 29.78 4.6758 11.194 18.677 16.476 30.018 11.325z" fill="#6c757d"/>
</svg>
