<?xml version="1.0" encoding="UTF-8" standalone="no"?>
<!-- Created with Inkscape (http://www.inkscape.org/) -->

<svg
   xmlns:dc="http://purl.org/dc/elements/1.1/"
   xmlns:cc="http://creativecommons.org/ns#"
   xmlns:rdf="http://www.w3.org/1999/02/22-rdf-syntax-ns#"
   xmlns:svg="http://www.w3.org/2000/svg"
   xmlns="http://www.w3.org/2000/svg"
   xmlns:sodipodi="http://sodipodi.sourceforge.net/DTD/sodipodi-0.dtd"
   xmlns:inkscape="http://www.inkscape.org/namespaces/inkscape"
   version="1.1"
   id="svg1646"
   width="201.90379"
   height="202.83536"
   viewBox="0 0 201.90379 202.83536"
   sodipodi:docname="tools.png"
   inkscape:version="0.92.3 (2405546, 2018-03-11)">
  <metadata
     id="metadata1652">
    <rdf:RDF>
      <cc:Work
         rdf:about="">
        <dc:format>image/svg+xml</dc:format>
        <dc:type
           rdf:resource="http://purl.org/dc/dcmitype/StillImage" />
        <dc:title></dc:title>
      </cc:Work>
    </rdf:RDF>
  </metadata>
  <defs
     id="defs1650" />
  <sodipodi:namedview
     pagecolor="#ffffff"
     bordercolor="#666666"
     borderopacity="1"
     objecttolerance="10"
     gridtolerance="10"
     guidetolerance="10"
     inkscape:pageopacity="0"
     inkscape:pageshadow="2"
     inkscape:window-width="1920"
     inkscape:window-height="1017"
     id="namedview1648"
     showgrid="false"
     fit-margin-top="0"
     fit-margin-left="0"
     fit-margin-right="0"
     fit-margin-bottom="0"
     inkscape:zoom="3.2460317"
     inkscape:cx="96.682152"
     inkscape:cy="96.214328"
     inkscape:window-x="-8"
     inkscape:window-y="45"
     inkscape:window-maximized="1"
     inkscape:current-layer="svg1646" />
  <path
     style="fill:#6c757d;fill-opacity:1"
     d="m 30.76372,201.1607 c -6.744421,-1.97114 -9.263917,-4.71487 -7.819111,-8.515 0.523833,-1.37778 4.350591,-5.84855 8.503907,-9.93504 L 39,175.28068 v -6.14033 -6.14034 h -5.881822 -5.881823 l -8.006534,7.95293 c -4.403594,4.37411 -9.142778,8.2381 -10.531519,8.58666 -5.806252,1.45727 -9.148232,-6.80792 -8.507227,-21.03959 0.34723,-7.70923 0.882239,-9.96399 3.730397,-15.72151 C 12.102256,126.24114 29.332347,117.34055 48,120.00875 l 6.5,0.92905 14.25,-14.20596 c 7.8375,-7.813283 14.250002,-14.494743 14.250002,-14.847693 0,-0.35295 -10.167095,-10.89343 -22.593542,-23.423292 L 37.81292,45.679296 35.002168,47.339648 C 33.456254,48.252842 31.295716,49 30.200971,49 28.974454,49 22.796963,43.586437 14.105263,34.894737 3.2642,24.053674 0,20.193215 0,18.212919 0,16.330552 2.106412,13.529951 7.818182,7.818182 12.118182,3.518182 16.47081,0 17.490689,0 c 1.046345,0 8.097209,6.189673 16.181818,14.205373 15.198583,15.069037 16.16694,16.723435 12.692275,21.684215 -1.622772,2.316831 -1.459138,2.510679 21.499151,25.468969 l 23.134369,23.13438 14.185438,-14.185445 14.18543,-14.185438 0.0654,-12.811027 C 119.49737,31.011428 119.62685,30.240514 122.67764,24 130.81032,7.364259 149.23237,-2.244588 166.93005,0.918164 c 3.9376,0.703688 8.17034,2.159564 9.64031,3.315839 4.12649,3.245903 2.75921,6.555967 -6.60017,15.978442 l -8.06024,8.114568 0.29502,5.586493 L 162.5,39.5 l 5.87997,0.303782 5.87997,0.303782 8.74126,-8.553782 c 8.93788,-8.746184 11.48439,-9.968113 14.17912,-6.803782 4.56903,5.365262 5.89574,21.217304 2.55282,30.50233 -7.22936,20.079742 -29.08952,32.656567 -47.97972,27.604217 l -4.27529,-1.14347 -14.90033,14.72688 -14.90033,14.726893 11.62906,11.62906 11.62907,11.62906 8.90343,-8.71248 c 4.89689,-4.79186 9.61885,-8.71248 10.49325,-8.71248 1.47384,0 5.67607,3.66587 5.66113,4.93856 -0.0103,0.87374 -3.30075,5.56862 -5.24341,7.4813 -0.9625,0.94765 -1.75,2.11669 -1.75,2.59787 0,0.48117 8.9039,9.80456 19.78644,20.71864 10.88254,10.91407 20.55754,21.46874 21.5,23.45483 5.93474,12.50655 -5.38569,28.30063 -18.95177,26.44119 -2.36002,-0.32347 -5.31328,-1.15498 -6.56281,-1.84778 -1.24952,-0.69281 -11.5244,-10.40136 -22.83306,-21.57456 l -20.56121,-20.31492 -2.43879,2.40512 c -5.17752,5.10601 -9.78012,5.73328 -11.97505,1.63203 -1.41329,-2.64076 -0.46198,-4.09108 8.46626,-12.90725 C 129.5935,145.9138 133,142.25055 133,141.88447 c 0,-0.7788 -21.88701,-22.88446 -22.65811,-22.88446 -0.2867,0 -7.04426,6.55054 -15.016788,14.55675 -11.15647,11.20359 -14.32257,14.94679 -13.74467,16.25 0.41297,0.93129 0.94758,5.15034 1.18803,9.37566 0.662,11.63324 -3.06893,21.59875 -11.303862,30.19319 -5.589303,5.83332 -12.143808,9.73888 -20.030204,11.93518 -7.459835,2.0775 -13.191208,2.03589 -20.670676,-0.15009 z M 55,189.37798 c 5.365105,-2.87872 12.760535,-10.57039 14.876697,-15.47263 2.910106,-6.74146 3.395385,-12.72839 1.693375,-20.89127 -1.122494,-5.38351 -1.232306,-7.77667 -0.425973,-9.28332 1.199563,-2.2414 68.465261,-69.643308 71.911621,-72.057228 1.88775,-1.32224 2.65612,-1.33366 6.17586,-0.0918 2.21093,0.78006 7.2258,1.41794 11.14415,1.4175 11.80591,-0.001 22.10096,-6.270143 28.0107,-17.056223 1.16254,-2.1218 2.08129,-6.320981 2.39424,-10.942986 l 0.50781,-7.5 -5.89424,6 -5.89424,6 -12.29804,0.332579 c -8.56295,0.231569 -12.73901,-0.0334 -13.75,-0.872445 C 152.33073,48.029614 152,45.029918 152,35.791021 V 23.826892 L 158.15851,17.413446 164.31701,11 h -5.76554 c -13.03077,0 -25.87177,10.372689 -28.56768,23.076368 -1.16364,5.483353 -1.08324,8.169352 0.60246,20.124889 l 0.66287,4.701257 -36.611778,36.548753 C 69.77008,120.27571 57.352346,132.00001 55.926915,132.00001 c -1.154255,0 -4.908898,-0.74883 -8.34365,-1.66406 -5.848317,-1.55835 -6.677244,-1.55548 -13.049692,0.0452 -12.118711,3.04412 -21.04751,11.64318 -23.486169,22.61883 -0.672119,3.025 -1.39747,6.175 -1.611891,7 -0.214421,0.825 0.02244,2.15717 0.526349,2.96037 0.734138,1.17017 2.105885,0.32561 6.902935,-4.25 l 5.986728,-5.71034 H 35.06552 c 15.169553,0 14.858999,-0.28415 14.902677,13.63569 0.03637,11.59128 -0.498954,13.05296 -7.254722,19.80873 C 40.121064,189.03684 38,191.40784 38,191.71332 c 0,1.28868 13.77178,-0.6032 17,-2.33534 z m 134,0.62203 c 1.36503,-1.36503 2,-3.33333 2,-6.19967 0,-4.12395 -0.36033,-4.56119 -19.98488,-24.25 l -19.98488,-20.05033 -6.17082,6.1657 -6.17081,6.16569 20.32543,20.08431 c 19.30805,19.07899 20.51716,20.0843 24.1557,20.0843 2.49693,0 4.52647,-0.69621 5.83026,-2 z M 34.033389,33.464459 l 2.382016,-2.53554 -9.179025,-9.179025 -9.179025,-9.179026 -3.05065,2.922708 -3.05065,2.922709 8.751123,8.791857 C 25.520296,32.043664 29.951742,36 30.554837,36 c 0.603094,0 2.168442,-1.140993 3.478552,-2.535541 z"
     id="path1656"
     inkscape:connector-curvature="0" />
</svg>
