<?xml version="1.0" encoding="UTF-8"?>
<!-- Created with Inkscape (http://www.inkscape.org/) -->
<svg width="188.98" height="197.95" version="1.1" viewBox="0 0 188.98 197.95" xmlns="http://www.w3.org/2000/svg" xmlns:cc="http://creativecommons.org/ns#" xmlns:dc="http://purl.org/dc/elements/1.1/" xmlns:rdf="http://www.w3.org/1999/02/22-rdf-syntax-ns#">
 <metadata>
  <rdf:RDF>
   <cc:Work rdf:about="">
    <dc:format>image/svg+xml</dc:format>
    <dc:type rdf:resource="http://purl.org/dc/dcmitype/StillImage"/>
    <dc:title/>
   </cc:Work>
  </rdf:RDF>
 </metadata>
 <path d="m77.622 196.44c-0.82537-0.82537-2.0092-4.0879-2.6306-7.25-1.2104-6.1587-3.3298-16.045-5.5199-25.749-0.74477-3.3-1.8874-8.6772-2.5392-11.949-1.1164-5.6045-1.6972-6.458-10.019-14.724-6.8396-6.7942-9.6346-10.44-12.381-16.15-15.574-32.379 2.5537-69.836 37.339-77.153 9.0869-1.9115 13.129-1.9115 22.216 0 10.614 2.2326 19.357 6.8789 26.392 14.025 7.8908 8.0152 8.9176 9.5017 12.489 18.082 2.2562 5.4197 3.1749 9.5031 3.6152 16.068 1.2665 18.888-3.6338 31.519-17.549 45.232-9.2581 9.1237-9.371 9.3453-12.01 23.57-0.61229 3.3-1.75 8.925-2.5282 12.5-0.77825 3.575-1.8985 8.975-2.4895 12-2.6666 13.65-1.7158 13-19.027 13-10.987 0-14.168-0.31084-15.358-1.5007zm25.358-7.4993c0-0.6-4-1-10-1s-10 0.4-10 1 4 1 10 1 10-0.4 10-1zm1.75-10.25c-0.30065-0.90196-3.5722-1.25-11.75-1.25-8.1778 0-11.449 0.34804-11.75 1.25-0.31811 0.95434 2.4611 1.25 11.75 1.25 9.2889 0 12.068-0.29566 11.75-1.25zm2.7659-9.7757c0.34866-0.56414 0.88817-3.4891 1.1989-6.5l0.565-5.4743h-32.555l0.66232 5.6354c0.36428 3.0994 0.9028 6.0244 1.1967 6.5 0.77233 1.2496 28.155 1.0972 28.932-0.16108zm-19.153-20.25c1.5887-1.1617 1.7178-3.3464 1.4411-24.397-0.33463-25.463-0.57151-26.43-6.7746-27.671-3.2574-0.65147-4.8517-3.96-2.9895-6.2038 1.6502-1.9884 5.8027-1.8214 9.9448 0.40009 3.3594 1.8017 3.5359 1.8018 6.4844 4e-3 1.667-1.0166 4.2134-1.85 5.6585-1.8521 5.6917-8e-3 6.3113 6.5585 0.72429 7.6759-5.6359 1.1272-5.9163 2.5704-5.6203 28.923l0.26845 23.897 4.9337 0.31229c6.7606 0.42794 9.5663-0.4083 9.5663-2.8512 0-3.0944 4.2005-9.0297 9.8889-13.973 6.3136-5.4868 13.218-15.604 15.689-22.988 1.1854-3.543 1.8337-8.3466 1.8219-13.5-0.0361-15.82-7.4607-29.663-20.649-38.5-16.317-10.933-36.024-10.72-52.412 0.56681-12.272 8.4522-19.46 22.187-19.59 37.433-0.12108 14.205 4.9399 25.241 16.471 35.916 6.055 5.6059 10.781 11.903 10.781 14.364 0 0.72593 0.54 1.8599 1.2 2.5199 1.5927 1.5927 10.955 1.5386 13.163-0.076zm60.098 8.1795c-7.2597-7.086-8.4607-8.7299-8.4607-11.581 0-2.8396 0.34855-3.3226 2.3974-3.3226 1.6774 0 4.8443 2.4766 10.545 8.2466 6.9986 7.0837 8.1059 8.6689 7.8526 11.242-0.52311 5.3119-3.2232 4.3082-12.334-4.5849zm-120.85 3.5147c-1.2701-3.3097-0.3897-4.8712 7.0664-12.533 6.5482-6.7288 8.1612-7.8852 11-7.8852 2.8901 0 3.3266 0.33116 3.3266 2.524 0 1.8527-2.3056 4.7782-8.669 11-8.5607 8.3702-11.539 9.9836-12.724 6.8942zm-26.357-63.08c-1.9497-0.78672-1.4764-5.1462 0.68426-6.3025 1.0638-0.56935 6.9434-1.0352 13.066-1.0352 6.1223 0 12.002 0.46583 13.066 1.0352 2.332 1.248 2.5681 5.5076 0.35247 6.3578-1.878 0.72067-25.364 0.67287-27.168-0.0553zm158.32-0.90915c-0.86429-0.86428-1.5714-1.9571-1.5714-2.4286s0.70714-1.5643 1.5714-2.4286c2.2975-2.2975 25.56-2.2975 27.857 0 0.86429 0.86428 1.5714 2.1243 1.5714 2.8 0 3.0264-2.5106 3.6286-15.129 3.6286-10.238 0-13.036-0.30747-14.3-1.5714zm-123.14-54.558c-8.5669-8.3619-10.922-12.316-8.3123-13.955 2.4523-1.5397 5.223 0.12966 13.173 7.9368 6.6903 6.57 7.7471 8.0693 7.5 10.64-0.51106 5.315-3.2177 4.3031-12.361-4.6212zm104.24 7.4627c-0.36667-0.36667-0.66667-1.9837-0.66667-3.5934 0-4.1419 13.182-17.7 17.52-18.02 2.5448-0.18766 3.0246 0.1659 3.2858 2.4211 0.25002 2.1585-1.2523 4.2131-8.2261 11.25-7.9843 8.0565-10.273 9.5825-11.913 7.9425zm-48.917-20.413c-1.5228-0.88692-1.75-2.6851-1.75-13.847 0-13.817 0.60425-15.55 5.195-14.9 2.259 0.32024 2.3106 0.59346 2.5848 13.688 0.32718 15.624-0.69134 18.168-6.0298 15.058z" fill="#6c757d"/>
</svg>
