<?xml version="1.0" encoding="UTF-8" standalone="no"?>
<!-- Created with Inkscape (http://www.inkscape.org/) -->

<svg
   xmlns:dc="http://purl.org/dc/elements/1.1/"
   xmlns:cc="http://creativecommons.org/ns#"
   xmlns:rdf="http://www.w3.org/1999/02/22-rdf-syntax-ns#"
   xmlns:svg="http://www.w3.org/2000/svg"
   xmlns="http://www.w3.org/2000/svg"
   xmlns:sodipodi="http://sodipodi.sourceforge.net/DTD/sodipodi-0.dtd"
   xmlns:inkscape="http://www.inkscape.org/namespaces/inkscape"
   version="1.1"
   id="svg2658"
   width="960"
   height="540"
   viewBox="0 0 960 540"
   sodipodi:docname="twitter_circle.svg"
   inkscape:version="0.92.3 (2405546, 2018-03-11)">
  <metadata
     id="metadata2664">
    <rdf:RDF>
      <cc:Work
         rdf:about="">
        <dc:format>image/svg+xml</dc:format>
        <dc:type
           rdf:resource="http://purl.org/dc/dcmitype/StillImage" />
        <dc:title></dc:title>
      </cc:Work>
    </rdf:RDF>
  </metadata>
  <defs
     id="defs2662" />
  <sodipodi:namedview
     pagecolor="#666666"
     bordercolor="#666666"
     borderopacity="1"
     objecttolerance="10"
     gridtolerance="10"
     guidetolerance="10"
     inkscape:pageopacity="0"
     inkscape:pageshadow="2"
     inkscape:window-width="1920"
     inkscape:window-height="1080"
     id="namedview2660"
     showgrid="false"
     inkscape:zoom="1.5052083"
     inkscape:cx="480"
     inkscape:cy="270"
     inkscape:window-x="0"
     inkscape:window-y="53"
     inkscape:window-maximized="1"
     inkscape:current-layer="svg2658" />
  <path
     style="fill:#ffffff;fill-opacity:1"
     d="m 462.5,513.41992 c -1.65,-0.23048 -7.275,-0.90537 -12.5,-1.49977 C 369.4812,502.76031 296.59097,450.67398 260.49145,376.5 243.96358,342.54006 237.18873,314.38992 236.28301,275.9117 c -0.57896,-24.596 0.2645,-35.62045 4.23944,-55.4117 20.91543,-104.13814 108.50958,-183.666946 214.32314,-194.589064 16.78674,-1.732734 50.45283,-0.678473 66.02603,2.067619 40.69288,7.175558 77.36271,23.257333 109.12838,47.85891 10.35994,8.023471 29.93345,26.936785 38.58514,37.283695 16.43581,19.65628 33.62507,49.87762 42.18592,74.16927 32.12052,91.14294 7.88704,192.78117 -61.75227,258.99662 -37.27942,35.44656 -82.99964,57.65993 -134.41353,65.30541 -9.66288,1.43692 -45.82207,2.70511 -52.10526,1.82746 z M 438.14405,428.9524 c 59.45879,-6.0148 112.25953,-39.19516 147.12178,-92.4524 8.58873,-13.12055 20.97316,-38.98376 26.09699,-54.5 8.36696,-25.3373 11.56184,-44.65496 12.33443,-74.57947 l 0.57005,-22.07946 4.60345,-2.91236 c 2.5319,-1.6018 9.21676,-7.35577 14.85525,-12.78661 8.10046,-7.80215 10.999,-11.36783 13.81248,-16.99165 1.95838,-3.91457 3.12399,-7.26296 2.59025,-7.44087 -0.53374,-0.17792 -3.14356,0.77135 -5.79959,2.10948 -8.85439,4.46091 -19.73701,7.84011 -27.07914,8.40843 -4.0245,0.31152 -7.23176,0.1633 -7.20901,-0.33315 0.0225,-0.49189 2.24356,-1.92677 4.93559,-3.18863 6.94784,-3.25671 14.79022,-11.5636 19.77494,-20.94622 C 648.36724,124.45371 651.40798,114 649.77191,114 c -0.27496,0 -6.97363,3.1141 -14.88592,6.92022 -7.9123,3.80613 -17.64958,7.90029 -21.63841,9.09814 l -7.25241,2.17791 -5.61095,-5.12809 C 584.90764,112.92345 571.5516,107.65648 551,107.59346 c -12.66665,-0.0388 -20.1709,1.74829 -32,7.62082 -6.78761,3.36969 -10.33028,6.03955 -17.5852,13.25276 -7.69319,7.64895 -9.79903,10.48853 -13.74412,18.53296 -7.9783,16.26858 -10.3773,31.50476 -7.29908,46.35696 0.89562,4.32133 1.6284,8.03383 1.6284,8.25 0,0.21617 -5.82716,0.39304 -12.94924,0.39304 -33.1309,0 -70.87801,-14.23705 -103.73424,-39.12536 -11.44072,-8.66625 -27.61188,-25.51598 -32.5441,-33.90969 l -3.72758,-6.34365 -3.40101,7.43935 c -9.81596,21.47138 -10.06782,45.35064 -0.67622,64.11447 7.48322,14.95102 16.77765,25.59311 29.53239,33.81447 l 5,3.22287 -9,-0.67462 c -12.67739,-0.95027 -17.99966,-2.2147 -25.86764,-6.14545 l -6.86763,-3.431 0.71956,5.75916 c 2.33349,18.67662 12.31686,39.18096 24.84651,51.03099 10.68919,10.10938 28.6352,20.25995 38.65072,21.8615 5.36126,0.8573 4.19654,1.79823 -4.67893,3.77993 -9.49458,2.11994 -15.34054,2.02702 -24.80793,-0.39434 -4.30389,-1.10075 -7.98068,-1.84594 -8.17064,-1.65598 -0.62534,0.62534 2.56637,8.65635 6.14665,15.46624 6.93532,13.19135 20.38084,26.55995 32.80131,32.61364 5.59145,2.72525 19.3677,6.56754 23.63798,6.59278 6.17531,0.0365 5.29969,1.64324 -4.27611,7.84649 -26.81725,17.37234 -54.24618,27.69391 -79.20042,29.80332 -4.12515,0.3487 -7.7336,1.01155 -8.0188,1.47301 -0.28519,0.46145 3.3309,3.34819 8.03575,6.41497 31.28968,20.39564 76.69688,31.24302 114.69367,27.3993 z"
     id="path2668"
     inkscape:connector-curvature="0" />
</svg>
